<?xml version="1.0" encoding="UTF-8" standalone="no"?>
<!DOCTYPE svg PUBLIC "-//W3C//DTD SVG 1.0//EN"
"http://www.w3.org/TR/2001/REC-SVG-20010904/DTD/svg10.dtd">
<!-- Created with Inkscape (http://www.inkscape.org/) -->
<svg
   xmlns="http://www.w3.org/2000/svg"
   xmlns:xlink="http://www.w3.org/1999/xlink"
   version="1.0"
   x="0.0000000"
   y="0.0000000"
   width="1280.0000"
   height="960.00000"
   id="svg1227">
  <defs
     id="defs3">
    <linearGradient
       id="linearGradient970">
      <stop
         style="stop-color:#ffbf00;stop-opacity:1.0000000;"
         offset="0.0000000"
         id="stop971" />
      <stop
         style="stop-color:#ffbf00;stop-opacity:0.0000000;"
         offset="1.0000000"
         id="stop972" />
    </linearGradient>
    <linearGradient
       id="linearGradient668">
      <stop
         style="stop-color:#000000;stop-opacity:0.44313726;"
         offset="0.0000000"
         id="stop669" />
      <stop
         style="stop-color:#000000;stop-opacity:0.10309278;"
         offset="1.0000000"
         id="stop670" />
    </linearGradient>
    <linearGradient
       id="linearGradient403">
      <stop
         style="stop-color:#ffffff;stop-opacity:0.37113401;"
         offset="0.0000000"
         id="stop405" />
      <stop
         style="stop-color:#ffffff;stop-opacity:0.0000000;"
         offset="1.0000000"
         id="stop404" />
    </linearGradient>
    <linearGradient
       id="linearGradient4297">
      <stop
         style="stop-color:#bdbdbd;stop-opacity:0.50196081;"
         offset="0.0000000"
         id="stop4298" />
      <stop
         style="stop-color:#ffffff;stop-opacity:0.72916669;"
         offset="1.0000000"
         id="stop4299" />
    </linearGradient>
    <linearGradient
       id="linearGradient4928">
      <stop
         style="stop-color:#0072fe;stop-opacity:1.0000000;"
         offset="0.0000000"
         id="stop4930" />
      <stop
         style="stop-color:#0000b0;stop-opacity:1.0000000;"
         offset="1.0000000"
         id="stop4929" />
    </linearGradient>
    <linearGradient
       id="linearGradient4910">
      <stop
         style="stop-color:#000000;stop-opacity:0.68062830;"
         offset="0.0000000"
         id="stop4911" />
      <stop
         style="stop-color:#000000;stop-opacity:0.094117649;"
         offset="1.0000000"
         id="stop4912" />
    </linearGradient>
    <linearGradient
       id="linearGradient4907">
      <stop
         style="stop-color:#ffffff;stop-opacity:0.84536082;"
         offset="0.0000000"
         id="stop4909" />
      <stop
         style="stop-color:#ffffff;stop-opacity:0.0000000;"
         offset="1.0000000"
         id="stop4908" />
    </linearGradient>
    <linearGradient
       id="linearGradient4904">
      <stop
         style="stop-color:#006ce4;stop-opacity:0.24870466;"
         offset="0.0000000"
         id="stop4906" />
      <stop
         style="stop-color:#3b85b3;stop-opacity:0.20725389;"
         offset="1.0000000"
         id="stop4905" />
    </linearGradient>
    <linearGradient
       id="linearGradient4901">
      <stop
         style="stop-color:#ffffff;stop-opacity:0.0000000;"
         offset="0.0000000"
         id="stop4903" />
      <stop
         style="stop-color:#bbffff;stop-opacity:0.40414509;"
         offset="1.0000000"
         id="stop4902" />
    </linearGradient>
    <linearGradient
       id="linearGradient9558">
      <stop
         style="stop-color:#00007a;stop-opacity:1.0000000;"
         offset="0.0000000"
         id="stop9560" />
      <stop
         style="stop-color:#00007a;stop-opacity:0.0000000;"
         offset="1.0000000"
         id="stop9559" />
    </linearGradient>
    <linearGradient
       id="linearGradient9555">
      <stop
         style="stop-color:#0043d9;stop-opacity:0.75647670;"
         offset="0.0000000"
         id="stop9557" />
      <stop
         style="stop-color:#00006e;stop-opacity:0.65284973;"
         offset="1.0000000"
         id="stop9556" />
    </linearGradient>
    <linearGradient
       id="linearGradient9552">
      <stop
         style="stop-color:#001dff;stop-opacity:0.77647060;"
         offset="0.0000000"
         id="stop9554" />
      <stop
         style="stop-color:#003787;stop-opacity:0.22352941;"
         offset="1.0000000"
         id="stop9553" />
    </linearGradient>
    <linearGradient
       id="linearGradient7480">
      <stop
         style="stop-color:#bdbdbd;stop-opacity:1.0000000;"
         offset="0.0000000"
         id="stop7481" />
      <stop
         style="stop-color:#ffffff;stop-opacity:1.0000000;"
         offset="1.0000000"
         id="stop7482" />
    </linearGradient>
    <linearGradient
       id="linearGradient6228">
      <stop
         style="stop-color:#ffffff;stop-opacity:0.0000000;"
         offset="0.0000000"
         id="stop6229" />
      <stop
         style="stop-color:#ffffff;stop-opacity:0.46354166;"
         offset="0.50000000"
         id="stop6231" />
      <stop
         style="stop-color:#ffffff;stop-opacity:0.0000000;"
         offset="1.0000000"
         id="stop6230" />
    </linearGradient>
    <linearGradient
       id="linearGradient3109">
      <stop
         style="stop-color:#ffffff;stop-opacity:0.90588236;"
         offset="0.0000000"
         id="stop3110" />
      <stop
         style="stop-color:#ffffff;stop-opacity:0.17708333;"
         offset="1.0000000"
         id="stop3111" />
    </linearGradient>
    <linearGradient
       x1="-983.55884"
       y1="-9.5417423"
       x2="-932.79236"
       y2="592.20520"
       id="linearGradient3113"
       xlink:href="#linearGradient3109"
       gradientUnits="userSpaceOnUse"
       gradientTransform="scale(-1.154701,0.866025)" />
    <defs
       id="defs8743">
      <linearGradient
         x1="0.0000000"
         y1="0.50000000"
         x2="1.0000000"
         y2="0.50000000"
         id="linearGradient7346"
         xlink:href="#linearGradient9558"
         gradientUnits="objectBoundingBox"
         spreadMethod="pad" />
      <linearGradient
         x1="0.0000000"
         y1="0.50000000"
         x2="1.0000000"
         y2="0.50000000"
         id="linearGradient6100"
         xlink:href="#linearGradient403"
         gradientUnits="objectBoundingBox"
         spreadMethod="pad" />
      <linearGradient
         x1="0.0000000"
         y1="0.50000000"
         x2="1.0000000"
         y2="0.50000000"
         id="linearGradient4232"
         xlink:href="#linearGradient4907"
         gradientUnits="objectBoundingBox"
         spreadMethod="pad" />
      <linearGradient
         id="linearGradient1594">
        <stop
           style="stop-color:#03a4fe;stop-opacity:0.0000000;"
           offset="0.0000000"
           id="stop1595" />
        <stop
           style="stop-color:#0090ff;stop-opacity:0.26424870;"
           offset="1.0000000"
           id="stop1596" />
      </linearGradient>
      <linearGradient
         id="linearGradient2829">
        <stop
           style="stop-color:#37ffff;stop-opacity:0.40784314;"
           offset="0.0000000"
           id="stop2830" />
        <stop
           style="stop-color:#60ffff;stop-opacity:0.0000000;"
           offset="1.0000000"
           id="stop2831" />
      </linearGradient>
      <linearGradient
         x1="0.0000000"
         y1="0.50000000"
         x2="1.0000000"
         y2="0.50000000"
         id="linearGradient1587"
         xlink:href="#linearGradient4904"
         gradientUnits="objectBoundingBox"
         spreadMethod="pad" />
      <linearGradient
         id="linearGradient2952">
        <stop
           style="stop-color:#ffffff;stop-opacity:0.37823835;"
           offset="0.0000000"
           id="stop2953" />
        <stop
           style="stop-color:#ffffff;stop-opacity:0.0000000;"
           offset="1.0000000"
           id="stop2954" />
      </linearGradient>
      <linearGradient
         id="linearGradient1870">
        <stop
           style="stop-color:#9dfffd;stop-opacity:0.99481863;"
           offset="0.0000000"
           id="stop1871" />
        <stop
           style="stop-color:#003fa7;stop-opacity:0.97409326;"
           offset="1.0000000"
           id="stop1872" />
      </linearGradient>
      <linearGradient
         id="linearGradient1598">
        <stop
           style="stop-color:#ffffff;stop-opacity:0.99481863;"
           offset="0.0000000"
           id="stop1599" />
        <stop
           style="stop-color:#53bdda;stop-opacity:1.0000000;"
           offset="1.0000000"
           id="stop1600" />
      </linearGradient>
      <linearGradient
         x1="0.0000000"
         y1="0.50000000"
         x2="1.0000000"
         y2="0.50000000"
         id="linearGradient6007"
         xlink:href="#linearGradient4901"
         gradientUnits="objectBoundingBox"
         spreadMethod="pad" />
      <linearGradient
         x1="0.0000000"
         y1="0.50000000"
         x2="1.0000000"
         y2="0.50000000"
         id="linearGradient7207"
         xlink:href="#linearGradient4928"
         gradientUnits="objectBoundingBox"
         spreadMethod="pad" />
      <linearGradient
         id="linearGradient2219">
        <stop
           style="stop-color:#001e00;stop-opacity:1.0000000;"
           offset="0.0000000"
           id="stop2220" />
        <stop
           style="stop-color:#000022;stop-opacity:0.0000000;"
           offset="1.0000000"
           id="stop2221" />
      </linearGradient>
      <linearGradient
         id="linearGradient17389">
        <stop
           style="stop-color:#000000;stop-opacity:0.45098040;"
           offset="0.0000000"
           id="stop17390" />
        <stop
           style="stop-color:#000000;stop-opacity:0.0000000;"
           offset="1.0000000"
           id="stop17391" />
      </linearGradient>
      <linearGradient
         x1="0.0000000"
         y1="0.50000000"
         x2="1.0000000"
         y2="0.50000000"
         id="linearGradient16142"
         xlink:href="#linearGradient9552"
         gradientUnits="objectBoundingBox"
         spreadMethod="pad" />
      <linearGradient
         id="linearGradient4028">
        <stop
           style="stop-color:#87ffff;stop-opacity:0.70588237;"
           offset="0.0000000"
           id="stop4029" />
        <stop
           style="stop-color:#ffffff;stop-opacity:0.0000000;"
           offset="1.0000000"
           id="stop4030" />
      </linearGradient>
      <linearGradient
         x1="0.0000000"
         y1="0.50000000"
         x2="1.0000000"
         y2="0.50000000"
         id="linearGradient2167"
         xlink:href="#linearGradient9555"
         gradientUnits="objectBoundingBox"
         spreadMethod="pad" />
      <linearGradient
         x1="0.52649009"
         y1="0.036585364"
         x2="0.52649009"
         y2="0.96951222"
         id="linearGradient13655"
         xlink:href="#linearGradient2167" />
      <linearGradient
         x1="0.30635837"
         y1="0.79687500"
         x2="0.86416185"
         y2="0.53906250"
         id="linearGradient16141"
         xlink:href="#linearGradient16142" />
      <linearGradient
         x1="0.029069768"
         y1="0.36718750"
         x2="0.66279072"
         y2="0.35937500"
         id="linearGradient7210"
         xlink:href="#linearGradient7207" />
      <linearGradient
         x1="0.67821783"
         y1="0.0078125000"
         x2="0.59405941"
         y2="0.94531250"
         id="linearGradient1597"
         xlink:href="#linearGradient1594" />
      <linearGradient
         id="linearGradient4105"
         xlink:href="#linearGradient1598" />
      <radialGradient
         cx="0.50000000"
         cy="0.50000000"
         r="0.50943398"
         fx="0.50000000"
         fy="0.50000000"
         id="radialGradient1590"
         xlink:href="#linearGradient2829" />
      <linearGradient
         x1="260.04196"
         y1="429.39368"
         x2="260.04196"
         y2="663.51147"
         id="linearGradient4235"
         xlink:href="#linearGradient4232"
         gradientUnits="userSpaceOnUse"
         gradientTransform="scale(1.154701,0.866025)" />
      <linearGradient
         x1="205.66626"
         y1="1082.0519"
         x2="205.20749"
         y2="968.04675"
         id="linearGradient6103"
         xlink:href="#linearGradient6100"
         gradientUnits="userSpaceOnUse"
         gradientTransform="scale(1.484615,0.673575)" />
      <linearGradient
         x1="415.65533"
         y1="79.104546"
         x2="421.31271"
         y2="673.13025"
         id="linearGradient7349"
         xlink:href="#linearGradient7346"
         gradientUnits="userSpaceOnUse"
         gradientTransform="scale(1.006773,0.993272)" />
    </defs>
    <linearGradient
       x1="-67.544571"
       y1="11.666231"
       x2="452.56406"
       y2="537.87115"
       id="linearGradient2428"
       xlink:href="#linearGradient4910"
       gradientUnits="userSpaceOnUse"
       gradientTransform="matrix(0.998512,-5.439429e-2,5.439517e-2,0.998528,434.1886,222.2092)" />
    <linearGradient
       x1="449.49612"
       y1="530.33911"
       x2="-68.400742"
       y2="10.631300"
       id="linearGradient2432"
       xlink:href="#linearGradient7480"
       gradientUnits="userSpaceOnUse"
       gradientTransform="matrix(0.998512,-5.439429e-2,5.439517e-2,0.998528,434.1886,222.2092)" />
    <linearGradient
       x1="557.84723"
       y1="411.82858"
       x2="558.04681"
       y2="594.22095"
       id="linearGradient4300"
       xlink:href="#linearGradient4907"
       gradientUnits="userSpaceOnUse"
       gradientTransform="matrix(1.135280,0.000000,0.000000,0.880840,0.000000,-0.378360)" />
    <linearGradient
       x1="366.71274"
       y1="233.44124"
       x2="854.27368"
       y2="779.08685"
       id="linearGradient3051"
       xlink:href="#linearGradient4297"
       gradientUnits="userSpaceOnUse"
       gradientTransform="matrix(0.998512,-5.439426e-2,5.439514e-2,0.998528,1.927710,5.783130)" />
    <linearGradient
       x1="227.38708"
       y1="414.63464"
       x2="1326.4247"
       y2="1108.5129"
       id="linearGradient577"
       xlink:href="#linearGradient6228"
       gradientUnits="userSpaceOnUse"
       gradientTransform="matrix(1.154701,0.000000,0.000000,0.866025,-2.085571e-6,4.260254e-6)"
       spreadMethod="pad" />
    <radialGradient
       cx="631.62567"
       cy="476.60822"
       r="165.78824"
       fx="631.62567"
       fy="476.60822"
       id="radialGradient708"
       xlink:href="#linearGradient668"
       gradientUnits="userSpaceOnUse"
       gradientTransform="scale(1.007966,0.992097)" />
    <linearGradient
       x1="452.82361"
       y1="890.64758"
       x2="452.82361"
       y2="787.63477"
       id="linearGradient770"
       xlink:href="#linearGradient403"
       gradientUnits="userSpaceOnUse"
       gradientTransform="matrix(1.426147,0.000000,0.000000,0.701190,-0.249290,1.497860)" />
    <radialGradient
       cx="243.08653"
       cy="676.53430"
       r="97.462234"
       fx="243.08653"
       fy="676.53430"
       id="radialGradient973"
       xlink:href="#linearGradient970"
       gradientUnits="userSpaceOnUse"
       gradientTransform="scale(0.888191,1.125884)" />
  </defs>
  <rect
     width="1280.0000"
     height="960.00000"
     x="0.0000000"
     y="-8.5265128e-14"
     style="fill:url(#linearGradient577);fill-opacity:1.0000000;fill-rule:evenodd;stroke:none;stroke-width:32.040730;stroke-linecap:round;stroke-linejoin:round;stroke-miterlimit:4.0000000;stroke-opacity:1.0000000"
     id="rect5602" />
  <path
     d="M 543.42149 576.51526 A 161.75423 161.75423 0 1 1  219.91304,576.51526 A 161.75423 161.75423 0 1 1  543.42149 576.51526 z"
     transform="matrix(0.972972,0.000000,0.000000,0.972972,270.0386,-80.57194)"
     style="fill:#ffffff;fill-opacity:0.44374999"
     id="path381" />
  <g
     id="layer1">
    <path
       d="M 641.36250,210.64994 C 641.00585,210.65014 640.71322,210.67754 640.36250,210.68124 C 662.19647,210.72494 672.41986,217.29054 674.05000,228.18124 L 685.89375,307.39994 C 686.38864,307.53104 686.86926,307.70234 687.36250,307.83754 L 675.45625,228.24374 C 673.81187,217.25784 663.48259,210.64074 641.36250,210.64994 z M 830.61250,289.49374 C 846.18773,305.05584 848.81224,316.97914 842.23750,325.86874 L 794.55000,390.33754 C 802.47606,403.93524 808.75845,418.60134 812.89375,434.24374 L 814.73750,434.52494 C 810.58157,419.09434 804.35334,404.59074 796.51875,391.14994 L 844.45625,326.39994 C 851.06162,317.46904 848.41661,305.47224 832.76875,289.83754 C 822.98889,280.06574 821.60200,280.49074 830.61250,289.49374 z M 897.61250,447.93124 C 905.15411,451.94674 909.57372,461.98364 909.58125,479.93124 C 909.59048,501.94864 903.01612,512.23194 892.08125,513.86874 L 812.86250,525.71254 C 808.74760,541.25574 802.57377,556.01644 794.64375,569.64994 L 842.36250,634.05624 C 848.94471,642.94014 846.33087,654.85594 830.76875,670.43124 C 815.20661,686.00644 803.28330,688.63094 794.39375,682.05624 L 729.89375,634.36874 C 716.31110,642.28304 701.64101,648.57964 686.01875,652.71254 L 674.23750,731.86874 C 672.60990,742.80494 662.31745,749.42194 640.30000,749.43124 C 622.32294,749.43874 612.28113,744.96804 608.26875,737.39994 C 611.32705,746.50264 621.61906,751.93964 641.55000,751.93124 C 663.67009,751.92194 674.00856,745.26224 675.64375,734.27494 L 687.48750,654.74374 C 703.18257,650.59164 717.93526,644.28874 731.58125,636.33754 L 796.36250,684.24374 C 805.29347,690.84914 817.29029,688.20404 832.92500,672.55624 C 848.55964,656.90834 851.19416,644.95034 844.58125,636.02494 L 796.61250,571.30624 C 804.57947,557.60914 810.79092,542.76574 814.92500,527.14994 L 894.51875,515.27494 C 905.50461,513.63064 912.12177,503.30124 912.11250,481.18124 C 912.10414,461.27534 906.69238,450.99364 897.61250,447.93124 z M 370.86250,480.80624 C 370.86125,481.02694 370.83116,481.20814 370.83125,481.43124 C 370.84053,503.55134 377.46898,513.85854 388.45625,515.49374 L 467.95625,527.27494 C 467.82320,526.78924 467.64764,526.32504 467.51875,525.83754 L 388.36250,514.08754 C 377.53741,512.47634 371.00376,502.36344 370.86250,480.80624 z M 550.58125,634.46254 L 486.17500,682.18124 C 477.29103,688.76344 465.37523,686.14954 449.80000,670.58754 C 440.81536,661.61034 436.26076,653.87524 435.17500,647.21254 C 435.57744,654.34214 440.23110,662.77694 450.17500,672.71254 C 465.82287,688.34714 477.78086,690.98164 486.70625,684.36874 L 551.42500,636.43124 C 564.89779,644.27144 579.46555,650.35714 594.80000,654.49374 L 594.51875,652.71254 C 578.96402,648.59434 564.22321,642.40114 550.58125,634.46254 z "
       style="fill:none;fill-opacity:1.0000000;fill-rule:evenodd;stroke:#000000;stroke-width:9.9375000;stroke-linecap:round;stroke-linejoin:round;stroke-miterlimit:4.0000000;stroke-opacity:0.098039217"
       id="path1162" />
    <path
       d="M 642.75000,212.08744 C 642.39335,212.08764 642.10072,212.11504 641.75000,212.11874 C 663.58397,212.16244 673.80736,218.72804 675.43750,229.61874 L 687.28125,308.83744 C 687.77614,308.96854 688.25676,309.13984 688.75000,309.27504 L 676.84375,229.68124 C 675.19937,218.69534 664.87009,212.07824 642.75000,212.08744 z M 832.00000,290.93124 C 847.57523,306.49334 850.19974,318.41664 843.62500,327.30624 L 795.93750,391.77504 C 803.86356,405.37274 810.14595,420.03884 814.28125,435.68124 L 816.12500,435.96244 C 811.96907,420.53184 805.74084,406.02824 797.90625,392.58744 L 845.84375,327.83744 C 852.44912,318.90654 849.80411,306.90974 834.15625,291.27504 C 824.37639,281.50324 822.98950,281.92824 832.00000,290.93124 z M 899.00000,449.36874 C 906.54161,453.38424 910.96122,463.42114 910.96875,481.36874 C 910.97798,503.38614 904.40362,513.66944 893.46875,515.30624 L 814.25000,527.15004 C 810.13510,542.69324 803.96127,557.45394 796.03125,571.08744 L 843.75000,635.49374 C 850.33221,644.37764 847.71837,656.29344 832.15625,671.86874 C 816.59411,687.44394 804.67080,690.06844 795.78125,683.49374 L 731.28125,635.80624 C 717.69860,643.72054 703.02851,650.01714 687.40625,654.15004 L 675.62500,733.30624 C 673.99740,744.24244 663.70495,750.85944 641.68750,750.86874 C 623.71044,750.87624 613.66863,746.40554 609.65625,738.83744 C 612.71455,747.94014 623.00656,753.37714 642.93750,753.36874 C 665.05759,753.35944 675.39606,746.69974 677.03125,735.71244 L 688.87500,656.18124 C 704.57007,652.02914 719.32276,645.72624 732.96875,637.77504 L 797.75000,685.68124 C 806.68097,692.28664 818.67779,689.64154 834.31250,673.99374 C 849.94714,658.34584 852.58166,646.38784 845.96875,637.46244 L 798.00000,572.74374 C 805.96697,559.04664 812.17842,544.20324 816.31250,528.58744 L 895.90625,516.71244 C 906.89211,515.06814 913.50927,504.73874 913.50000,482.61874 C 913.49164,462.71284 908.07988,452.43114 899.00000,449.36874 z M 372.25000,482.24374 C 372.24875,482.46444 372.21866,482.64564 372.21875,482.86874 C 372.22803,504.98884 378.85648,515.29604 389.84375,516.93124 L 469.34375,528.71244 C 469.21070,528.22674 469.03514,527.76254 468.90625,527.27504 L 389.75000,515.52504 C 378.92491,513.91384 372.39126,503.80094 372.25000,482.24374 z M 551.96875,635.90004 L 487.56250,683.61874 C 478.67853,690.20094 466.76273,687.58704 451.18750,672.02504 C 442.20286,663.04784 437.64826,655.31274 436.56250,648.65004 C 436.96494,655.77964 441.61860,664.21444 451.56250,674.15004 C 467.21037,689.78464 479.16836,692.41914 488.09375,685.80624 L 552.81250,637.86874 C 566.28529,645.70894 580.85305,651.79464 596.18750,655.93124 L 595.90625,654.15004 C 580.35152,650.03184 565.61071,643.83864 551.96875,635.90004 z "
       style="fill:none;fill-opacity:1.0000000;fill-rule:evenodd;stroke:#000000;stroke-width:9.9375000;stroke-linecap:round;stroke-linejoin:round;stroke-miterlimit:4.0000000;stroke-opacity:0.098039217"
       id="path4282" />
    <path
       d="M 644.21250,213.62494 C 643.85585,213.62514 643.56322,213.65254 643.21250,213.65624 C 665.04647,213.69994 675.26986,220.26554 676.90000,231.15624 L 688.74375,310.37494 C 689.23864,310.50604 689.71926,310.67734 690.21250,310.81254 L 678.30625,231.21874 C 676.66187,220.23284 666.33259,213.61574 644.21250,213.62494 z M 833.46250,292.46874 C 849.03773,308.03084 851.66224,319.95414 845.08750,328.84374 L 797.40000,393.31254 C 805.32606,406.91024 809.91166,416.89763 814.04696,432.54003 L 815.89071,432.82123 C 811.57414,417.39063 807.20334,407.56574 799.36875,394.12494 L 847.30625,329.37494 C 853.91162,320.44404 851.26661,308.44724 835.61875,292.81254 C 825.83889,283.04074 824.45200,283.46574 833.46250,292.46874 z M 900.46250,450.90624 C 908.00411,454.92174 912.42372,464.95864 912.43125,482.90624 C 912.44048,504.92364 905.86612,515.20694 894.93125,516.84374 L 815.71250,528.68754 C 811.59760,544.23074 805.42377,558.99144 797.49375,572.62494 L 845.21250,637.03124 C 851.79471,645.91514 849.18087,657.83094 833.61875,673.40624 C 818.05661,688.98144 806.13330,691.60594 797.24375,685.03124 L 732.74375,637.34374 C 719.16110,645.25804 704.49101,651.55464 688.86875,655.68754 L 677.08750,734.84374 C 675.45990,745.77994 665.16745,752.39694 643.15000,752.40624 C 625.17294,752.41374 615.13113,747.94304 611.11875,740.37494 C 614.17705,749.47764 624.46906,754.91464 644.40000,754.90624 C 666.52009,754.89694 676.85856,748.23724 678.49375,737.24994 L 690.33750,657.71874 C 706.03257,653.56664 720.78526,647.26374 734.43125,639.31254 L 799.21250,687.21874 C 808.14347,693.82414 820.14029,691.17904 835.77500,675.53124 C 851.40964,659.88334 854.04416,647.92534 847.43125,638.99994 L 799.46250,574.28124 C 807.42947,560.58414 813.64092,545.74074 817.77500,530.12494 L 897.36875,518.24994 C 908.35461,516.60564 914.97177,506.27624 914.96250,484.15624 C 914.95414,464.25034 909.54238,453.96864 900.46250,450.90624 z M 373.71250,483.78124 C 373.71125,484.00194 373.68116,484.18314 373.68125,484.40624 C 373.69053,506.52634 380.31898,516.83354 391.30625,518.46874 L 470.80625,530.24994 C 470.67320,529.76424 470.49764,529.30004 470.36875,528.81254 L 391.21250,517.06254 C 380.38741,515.45134 373.85376,505.33844 373.71250,483.78124 z M 553.43125,637.43754 L 489.02500,685.15624 C 480.14103,691.73844 468.22523,689.12454 452.65000,673.56254 C 443.66536,664.58534 439.11076,656.85024 438.02500,650.18754 C 438.42744,657.31714 443.08110,665.75194 453.02500,675.68754 C 468.67287,691.32214 480.63086,693.95664 489.55625,687.34374 L 554.27500,639.40624 C 567.74779,647.24644 582.31555,653.33214 597.65000,657.46874 L 597.36875,655.68754 C 581.81402,651.56934 567.07321,645.37614 553.43125,637.43754 z "
       style="fill:none;fill-opacity:1.0000000;fill-rule:evenodd;stroke:#000000;stroke-width:9.9375000;stroke-linecap:round;stroke-linejoin:round;stroke-miterlimit:4.0000000;stroke-opacity:0.098039217"
       id="path4283" />
    <path
       d="M 1280.0000,0.0000000 L 0.0000000,0.0000000 L 0.0000000,484.49800 C 586.02409,253.17269 642.57028,690.12047 1280.0000,484.49798 L 1280.0000,0.0000000 z "
       style="fill:url(#linearGradient3113);fill-opacity:1.0000000;fill-rule:evenodd;stroke:none;stroke-width:32.040730;stroke-linecap:round;stroke-linejoin:round;stroke-miterlimit:4.0000000;stroke-opacity:1.0000000"
       id="rect2487" />
    <path
       d="M 639.90625,210.62500 C 637.15405,210.62615 634.57876,210.73513 632.18750,210.93750 C 615.44863,212.35410 607.39289,218.58702 605.96875,228.15625 L 594.18750,307.31250 C 578.56519,311.44533 563.89520,317.74184 550.31250,325.65625 L 485.84375,277.96875 C 476.95426,271.39401 464.99963,274.01853 449.43750,289.59375 C 433.87536,305.16897 431.29277,317.08478 437.87500,325.96875 L 485.59375,390.37500 C 477.65477,404.01717 471.46207,418.75751 467.34375,434.31250 L 388.12500,446.15625 C 377.19011,447.79303 370.61574,458.10756 370.62500,480.12500 C 370.63424,502.14244 377.21998,512.40367 388.15625,514.03125 L 467.31250,525.78125 C 471.44720,541.42122 477.73190,556.12267 485.65625,569.71875 L 437.96875,634.18750 C 431.39398,643.07705 434.01853,654.96910 449.59375,670.53125 C 465.16898,686.09337 477.08478,688.70721 485.96875,682.12500 L 550.37500,634.40625 C 564.01697,642.34490 578.75777,648.53812 594.31250,652.65625 L 606.15625,731.84375 C 607.79301,742.77862 618.07632,749.38423 640.09375,749.37500 C 662.11118,749.36571 672.40365,742.74875 674.03125,731.81250 L 685.81250,652.65625 C 701.43475,648.52342 716.10485,642.22688 729.68750,634.31250 L 794.18750,682.00000 C 803.07704,688.57475 815.00036,685.95021 830.56250,670.37500 C 846.12461,654.79976 848.73846,642.88398 842.15625,634.00000 L 794.43750,569.59375 C 802.36751,555.96011 808.54135,541.19954 812.65625,525.65625 L 891.87500,513.81250 C 902.80986,512.17575 909.38423,501.89243 909.37500,479.87500 C 909.36575,457.85757 902.78000,447.59634 891.84375,445.96875 L 812.68750,434.18750 C 808.55219,418.54515 802.26981,403.87902 794.34375,390.28125 L 842.03125,325.81250 C 848.60598,316.92298 845.98148,304.99964 830.40625,289.43750 C 814.83106,273.87536 802.91523,271.26154 794.03125,277.84375 L 729.62500,325.56250 C 715.98338,317.62407 701.24177,311.46188 685.68750,307.34375 L 673.84375,228.12500 C 672.20698,217.19011 661.92369,210.61575 639.90625,210.62500 z M 640.00000,326.21875 C 723.81693,326.21876 791.75737,395.06949 791.75000,480.00000 C 791.75738,564.93048 723.81696,633.78125 640.00000,633.78125 C 556.18301,633.78123 488.24263,564.93049 488.25000,480.00000 C 488.24262,395.06947 556.18304,326.21875 640.00000,326.21875 z "
       style="fill:url(#linearGradient2428);fill-opacity:1.0000000;fill-rule:evenodd;stroke:url(#linearGradient2432);stroke-width:12.500000;stroke-linecap:round;stroke-linejoin:round;stroke-miterlimit:4.0000000;stroke-opacity:1.0000000"
       id="path1178" />
    <path
       d="M 398.85987,471.56368 L 403.23709,471.56368 L 403.23709,477.76002 L 409.54713,471.56368 L 414.62927,471.56368 L 406.45465,479.60188 L 415.47060,488.53825 L 409.99053,488.53825 L 403.23709,481.85303 L 403.23709,488.53825 L 398.85987,488.53825 L 398.85987,471.56368 M 421.29175,474.87219 L 421.29175,485.22974 L 422.86074,485.22974 C 424.64952,485.22974 426.01384,484.78634 426.95372,483.89953 C 427.90118,483.01271 428.37489,481.72418 428.37489,480.03392 C 428.37489,478.35126 427.90496,477.07029 426.96509,476.19104 C 426.02521,475.31181 424.65709,474.87221 422.86074,474.87219 L 421.29175,474.87219 M 416.91451,471.56368 L 421.53050,471.56368 C 424.10757,471.56369 426.02521,471.74941 427.28343,472.12079 C 428.54922,472.48463 429.63310,473.10615 430.53509,473.98538 C 431.33094,474.75094 431.92215,475.63396 432.30873,476.63444 C 432.69528,477.63498 432.88856,478.76813 432.88856,480.03392 C 432.88856,481.31487 432.69528,482.45939 432.30873,483.46749 C 431.92215,484.46800 431.33094,485.35102 430.53509,486.11655 C 429.62553,486.99580 428.53407,487.62111 427.26069,487.99251 C 425.98732,488.35634 424.07724,488.53825 421.53050,488.53825 L 416.91451,488.53825 L 416.91451,471.56368 M 436.24254,471.56368 L 448.05539,471.56368 L 448.05539,474.87219 L 440.61978,474.87219 L 440.61978,478.03290 L 447.61199,478.03290 L 447.61199,481.34141 L 440.61978,481.34141 L 440.61978,485.22974 L 448.30552,485.22974 L 448.30552,488.53825 L 436.24254,488.53825 L 436.24254,471.56368"
       style="font-size:12.000000;font-style:normal;font-variant:normal;font-weight:bold;font-stretch:normal;fill:#ffbf00;fill-opacity:1.0000000;stroke:#000000;stroke-width:0.77499998;stroke-linecap:butt;stroke-linejoin:miter;stroke-miterlimit:4.0000000;stroke-opacity:1.0000000;font-family:Sans;text-anchor:start;writing-mode:lr"
       id="text6779" />
    <path
       d="M 639.90625,210.62500 C 637.15405,210.62615 634.57876,210.73513 632.18750,210.93750 C 615.44863,212.35410 607.39289,218.58702 605.96875,228.15625 L 594.18750,307.31250 C 578.56519,311.44533 563.89520,317.74184 550.31250,325.65625 L 485.84375,277.96875 C 476.95426,271.39401 464.99963,274.01853 449.43750,289.59375 C 433.87536,305.16897 431.29277,317.08478 437.87500,325.96875 L 485.59375,390.37500 C 477.65477,404.01717 471.46207,418.75751 467.34375,434.31250 L 388.12500,446.15625 C 377.19011,447.79303 370.61574,458.10756 370.62500,480.12500 C 370.63424,502.14244 377.21998,512.40367 388.15625,514.03125 L 467.31250,525.78125 C 471.44720,541.42122 477.73190,556.12267 485.65625,569.71875 L 437.96875,634.18750 C 431.39398,643.07705 434.01853,654.96910 449.59375,670.53125 C 465.16898,686.09337 477.08478,688.70721 485.96875,682.12500 L 550.37500,634.40625 C 564.01697,642.34490 578.75777,648.53812 594.31250,652.65625 L 606.15625,731.84375 C 607.79301,742.77862 618.07632,749.38423 640.09375,749.37500 C 662.11118,749.36571 672.40365,742.74875 674.03125,731.81250 L 685.81250,652.65625 C 701.43475,648.52342 716.10485,642.22688 729.68750,634.31250 L 794.18750,682.00000 C 803.07704,688.57475 815.00036,685.95021 830.56250,670.37500 C 846.12461,654.79976 848.73846,642.88398 842.15625,634.00000 L 794.43750,569.59375 C 802.36751,555.96011 808.54135,541.19954 812.65625,525.65625 L 891.87500,513.81250 C 902.80986,512.17575 909.38423,501.89243 909.37500,479.87500 C 909.36575,457.85757 902.78000,447.59634 891.84375,445.96875 L 812.68750,434.18750 C 808.55219,418.54515 802.26981,403.87902 794.34375,390.28125 L 842.03125,325.81250 C 848.60598,316.92298 845.98148,304.99964 830.40625,289.43750 C 814.83106,273.87536 802.91523,271.26154 794.03125,277.84375 L 729.62500,325.56250 C 715.98338,317.62407 701.24177,311.46188 685.68750,307.34375 L 673.84375,228.12500 C 672.20698,217.19011 661.92369,210.61575 639.90625,210.62500 z M 640.00000,326.21875 C 723.81693,326.21876 791.75737,395.06949 791.75000,480.00000 C 791.75738,564.93048 723.81696,633.78125 640.00000,633.78125 C 556.18301,633.78123 488.24263,564.93049 488.25000,480.00000 C 488.24262,395.06947 556.18304,326.21875 640.00000,326.21875 z "
       style="fill:none;fill-opacity:1.0000000;fill-rule:evenodd;stroke:url(#linearGradient3051);stroke-width:5.0000000;stroke-linecap:round;stroke-linejoin:round;stroke-miterlimit:4.0000000;stroke-opacity:1.0000000"
       id="path3049" />
  </g>
  <path
     d="M 641.90731,332.02936 L 630.13985,332.27388 L 629.10064,334.96359 L 618.95311,335.17754 L 612.01490,335.84997 C 586.38615,337.75501 545.33570,360.22229 521.63466,397.46869 L 525.42470,399.02750 L 531.20146,393.49526 L 533.40212,396.15440 L 536.00014,392.33380 L 538.72041,395.51254 L 535.54166,397.19361 L 537.71177,398.78298 L 542.51045,398.14112 L 542.96892,393.28131 L 548.19551,386.70987 L 548.83737,392.63944 L 551.55764,393.64808 L 544.61942,396.49061 L 544.74168,401.35042 L 544.28321,405.66007 L 548.53172,403.97900 L 548.47059,401.25873 L 550.05996,400.15840 L 550.51843,396.36835 L 552.62741,394.16769 L 556.32575,392.48662 L 558.95433,389.73578 L 562.04138,383.19491 L 569.40751,376.04274 L 566.71780,375.03410 L 570.38558,371.18293 L 575.06200,364.06132 L 566.56498,367.48458 L 561.27726,370.81615 L 557.51778,370.35768 L 563.32510,365.92577 L 577.56832,354.31113 L 585.14840,359.01812 L 584.65936,361.18822 L 578.79091,362.89985 L 578.30188,365.62012 L 574.60353,367.85136 L 572.55569,372.77230 L 577.90453,372.09987 L 579.43277,368.82943 L 580.04407,372.06931 L 584.81219,369.80751 L 587.41020,365.98690 L 589.54974,366.47594 L 591.13911,364.82544 L 595.87666,361.52444 L 600.64477,357.64270 L 602.20358,355.99220 L 601.65341,354.40283 L 597.89394,354.46396 L 594.71520,355.04469 L 592.05605,356.72576 L 590.98628,356.20615 L 593.61486,354.00549 L 600.52251,352.23272 L 602.69262,353.82210 L 604.83216,352.72176 L 606.39096,350.52109 L 606.32983,348.35099 L 598.90258,350.67392 L 596.21287,349.63471 L 602.02019,345.20281 L 611.58699,341.77955 L 615.83550,340.09848 L 624.88269,337.74499 L 633.44085,337.59217 L 650.00699,336.73635 L 646.24752,335.72771 L 651.59636,335.08585 L 645.14718,333.58817 L 652.60500,332.36558 L 641.90731,332.02936 z M 656.70069,334.71907 L 661.52994,338.47855 L 667.94855,341.71842 L 675.43694,344.40812 L 674.88677,346.02806 L 677.57648,348.19817 L 677.57648,352.50781 L 681.33595,353.02741 L 683.99510,356.81745 L 679.71602,357.88722 L 682.40572,359.50716 L 680.78579,362.22743 L 674.88677,362.22743 L 673.29740,364.91713 L 675.43694,371.91648 L 675.43694,374.08659 L 677.02631,377.87663 L 675.43694,381.11650 L 671.67746,380.01616 L 673.81700,383.25604 L 674.36717,385.97631 L 677.57648,388.11585 L 669.01832,388.11585 L 664.73925,385.97631 L 664.73925,384.35637 L 664.73925,379.49656 L 666.32862,376.25669 L 665.25885,374.63675 L 663.11931,377.32646 L 662.04954,380.01616 L 662.59971,386.49591 L 668.46816,389.21618 L 672.74723,390.83612 L 667.94855,392.45606 L 663.66948,397.28530 L 662.04954,394.59559 L 660.46017,395.14576 L 661.52994,398.90524 L 657.77046,401.59494 L 658.32063,403.21488 L 657.25086,405.38498 L 654.01099,405.93515 L 653.49138,402.69528 L 651.35185,400.52517 L 655.08076,401.59494 L 657.77046,400.52517 L 658.32063,397.28530 L 648.66214,394.07599 L 646.52260,392.97566 L 640.13455,394.07599 L 635.30530,397.83547 L 627.26675,407.52452 L 623.53784,407.00492 L 620.84813,410.24479 L 618.70860,416.72454 L 620.32853,418.34448 L 625.67738,416.17437 L 627.81692,425.89399 L 633.16577,423.20429 L 632.64616,418.86408 L 634.78570,417.79431 L 636.37507,415.62420 L 634.78570,413.48467 L 634.78570,410.76439 L 639.06478,406.45475 L 639.06478,404.31521 L 642.27409,402.69528 L 643.86346,405.38498 L 639.06478,409.69463 L 639.58438,415.62420 L 645.48340,415.10460 L 648.66214,416.17437 L 646.52260,417.79431 L 641.20432,416.72454 L 641.20432,418.86408 L 642.27409,419.96441 L 642.27409,423.72389 L 639.58438,421.03418 L 637.99501,426.96376 L 635.30530,429.68403 L 634.23553,428.06410 L 627.26675,429.68403 L 626.19698,427.51393 L 624.60761,429.13386 L 622.98767,427.51393 L 622.46807,425.34382 L 624.05744,422.65412 L 624.05744,420.48401 L 620.32853,422.10395 L 620.32853,428.58370 L 614.42952,429.13386 L 613.35975,431.82357 L 610.15044,432.89334 L 609.08067,435.61361 L 604.25143,436.68338 L 601.59228,433.99367 L 601.59228,437.23355 L 600.52251,437.75315 L 598.90258,436.68338 L 596.24344,437.23355 L 599.97235,440.47342 L 599.97235,444.23290 L 597.31321,450.16248 L 586.61551,446.37243 L 580.71650,456.64222 L 580.19690,462.05220 L 582.85604,462.05220 L 585.02614,465.29207 L 587.16568,465.29207 L 591.96436,466.36184 L 595.17367,464.74190 L 597.31321,462.57180 L 597.86337,459.88209 L 601.04212,457.19239 L 604.80159,455.57245 L 604.80159,453.40235 L 606.94113,452.33258 L 610.70061,454.47212 L 616.04945,451.78241 L 617.63883,453.95252 L 617.11922,455.57245 L 621.91790,460.95186 L 623.53784,460.95186 L 627.81692,465.81167 L 626.74715,468.50138 L 624.05744,469.05155 L 621.91790,467.98178 L 619.25876,469.05155 L 625.12721,472.29142 L 625.12721,471.22165 L 625.12721,469.05155 L 627.26675,469.05155 L 629.40629,466.91201 L 629.40629,465.81167 L 628.33652,464.19174 L 629.40629,464.19174 L 632.09600,464.74190 L 632.09600,463.67213 L 628.33652,460.95186 L 627.81692,459.33193 L 625.67738,458.26216 L 621.91790,452.33258 L 622.98767,449.09271 L 633.71593,459.88209 L 634.23553,463.12197 L 637.99501,472.29142 L 641.20432,472.84159 L 642.79369,468.50138 L 640.65415,464.19174 L 646.52260,462.57180 L 646.52260,467.43161 L 646.52260,469.05155 L 648.14254,468.50138 L 649.73191,472.29142 L 654.01099,473.36119 L 656.70069,472.29142 L 659.39040,473.91136 L 663.11931,472.84159 L 663.66948,471.74125 L 665.80902,472.84159 L 667.39839,476.08146 L 663.66948,485.25091 L 657.25086,485.25091 L 652.94122,487.42102 L 639.06478,482.56121 L 634.23553,485.25091 L 634.23553,487.42102 L 631.02623,488.49079 L 629.40629,486.32068 L 625.12721,485.80108 L 624.05744,482.01104 L 619.25876,482.01104 L 614.42952,477.70140 L 617.11922,474.46152 L 616.04945,473.36119 L 616.04945,470.67148 L 614.42952,469.05155 L 610.70061,470.12132 L 604.80159,468.50138 L 597.31321,468.50138 L 590.89459,470.12132 L 587.16568,469.05155 L 585.02614,466.91201 L 581.26667,470.67148 L 578.57696,471.22165 L 573.77828,473.91136 L 574.29788,477.70140 L 570.01880,480.94127 L 566.80950,480.94127 L 554.49186,492.28083 L 554.49186,496.04030 L 555.04203,500.90011 L 553.42209,506.82969 L 550.76295,506.82969 L 551.83272,509.51940 L 550.21279,513.82904 L 555.56163,521.40912 L 556.11180,526.78853 L 567.35966,539.74802 L 574.29788,539.19786 L 580.19690,542.95733 L 595.72383,541.88756 L 597.86337,548.36731 L 603.18166,546.74737 L 607.46073,551.05702 L 605.32119,559.70687 L 616.04945,574.80590 L 617.63883,581.28564 L 613.35975,588.31556 L 620.84813,598.55478 L 622.98767,606.10429 L 625.67738,606.10429 L 630.47606,610.41394 L 631.02623,613.65381 L 650.80168,612.03387 L 662.59971,606.10429 L 663.11931,602.31425 L 669.01832,599.62455 L 669.01832,595.31491 L 679.16585,588.83516 L 682.92533,584.00591 L 682.40572,576.97600 L 680.23562,568.32615 L 700.56124,544.05767 L 705.39048,533.26828 L 705.94065,525.71876 L 690.41371,531.64834 L 688.27417,527.88887 L 683.47549,524.64899 L 679.71602,520.85895 L 673.29740,513.82904 L 673.81700,510.06956 L 669.53793,505.72936 L 664.18908,494.42037 L 666.87878,493.87020 L 672.74723,501.41971 L 675.95654,502.52005 L 677.57648,510.06956 L 681.33595,511.68950 L 686.13463,517.61908 L 688.82434,524.64899 L 691.48348,526.78853 L 708.08019,517.06891 L 707.53002,513.82904 L 714.49881,508.96923 L 718.77789,503.58982 L 720.91742,493.87020 L 713.94864,492.28083 L 711.28950,488.49079 L 707.53002,493.87020 L 703.77055,494.42037 L 702.18118,490.66089 L 698.97187,490.66089 L 694.69279,484.70075 L 697.35193,482.56121 L 701.11141,487.94062 L 709.66956,487.42102 L 711.80910,485.25091 L 714.49881,488.49079 L 723.05696,486.32068 L 729.47558,482.56121 L 740.17327,489.56056 L 742.31281,488.49079 L 755.15005,508.96923 L 756.76998,508.44963 L 756.21982,505.72936 L 758.90952,505.72936 L 759.42912,509.51940 L 762.63843,509.51940 L 762.11883,505.20975 L 758.90952,499.28017 L 758.35935,494.93997 L 757.28958,487.94062 L 760.49889,482.01104 L 761.04906,475.53129 L 762.63843,469.60171 L 765.84774,462.57180 L 770.12682,465.81167 L 772.26636,470.12132 L 773.33613,465.81167 L 779.23514,483.08081 L 781.37468,490.66089 L 779.23514,489.56056 L 776.54543,490.66089 L 777.09560,494.42037 L 779.23514,494.93997 L 782.44445,502.52005 L 784.06439,487.94062 L 781.92485,480.94127 L 779.78531,478.77117 L 778.16537,468.50138 L 782.99462,471.74125 L 781.92485,455.57245 L 776.54543,450.16248 L 776.02583,443.71329 L 776.02583,436.13321 L 773.88629,426.44416 L 770.12682,416.17437 L 764.77797,405.93515 L 758.35935,401.59494 L 752.46034,394.59559 L 759.42912,395.69593 L 748.73143,385.42614 L 739.10350,373.01682 L 728.40581,364.91713 L 715.56858,356.81745 L 718.77789,363.29720 L 709.14996,356.81745 L 698.97187,349.78754 L 694.14262,348.19817 L 690.41371,344.95829 L 704.84032,349.78754 L 704.84032,347.64800 L 687.75457,343.33836 L 682.40572,340.09848 L 670.60770,336.85861 L 667.39839,337.92838 L 663.66948,336.85861 L 656.70069,334.71907 z M 611.73981,343.33836 L 604.46538,345.90580 L 613.26805,348.19817 L 618.73916,346.27258 L 623.66010,344.22474 L 611.73981,343.33836 z M 617.57770,348.56494 L 612.80958,352.38555 L 610.05875,352.26329 L 605.29063,356.08389 L 611.40360,360.36297 L 620.26740,364.76431 L 624.14914,362.41082 L 622.83485,358.74304 L 620.45079,354.83074 L 624.05744,349.05398 L 617.57770,348.56494 z M 606.29927,361.79952 L 600.95042,365.03939 L 602.02019,366.65933 L 590.25273,374.20885 L 580.62480,379.06865 L 572.58625,386.61817 L 569.37694,390.40821 L 572.58625,389.85804 L 569.92711,394.16769 L 583.83411,388.23811 L 585.97365,389.85804 L 591.87266,388.23811 L 594.53181,390.40821 L 602.02019,388.78827 L 601.50059,386.06800 L 612.19828,382.30853 L 611.12851,380.13842 L 623.41558,373.10851 L 621.82621,370.96897 L 623.41558,367.17893 L 611.12851,362.86929 L 611.12851,365.03939 L 606.29927,361.79952 z M 590.52781,394.68729 L 588.38827,399.54710 L 588.38827,403.33714 L 593.18695,403.33714 L 596.94643,401.71720 L 596.39626,396.85739 L 592.66735,396.30723 L 592.66735,394.68729 L 590.52781,394.68729 z M 606.39096,411.86473 L 603.18166,414.55444 L 604.25143,424.27405 L 601.04212,423.72389 L 601.59228,425.89399 L 598.90258,426.44416 L 601.04212,429.13386 L 596.24344,430.75380 L 609.08067,431.82357 L 610.70061,428.06410 L 609.08067,425.89399 L 607.46073,418.34448 L 609.63084,415.10460 L 606.94113,414.00427 L 608.56107,412.93450 L 606.39096,411.86473 z M 600.36969,416.17437 L 598.23015,417.24414 L 596.09061,417.24414 L 595.02084,418.86408 L 596.09061,419.96441 L 592.88130,422.10395 L 598.23015,424.27405 L 600.36969,422.10395 L 601.98963,417.79431 L 600.36969,416.17437 z M 662.35519,445.66944 L 666.29805,450.74321 L 673.05288,449.61231 L 679.22698,452.42427 L 683.72001,455.81697 L 680.90805,459.17910 L 676.99575,459.17910 L 676.99575,460.86017 L 669.69075,458.04820 L 666.29805,458.04820 L 664.06682,460.31000 L 656.73126,460.86017 L 656.73126,456.36714 L 657.31199,451.87411 L 660.12396,449.61231 L 662.35519,445.66944 z M 696.58781,448.38971 L 699.98051,451.20168 L 701.66157,454.01365 L 705.02371,454.01365 L 705.02371,456.82561 L 706.70477,459.05684 L 706.70477,462.99971 L 712.90944,466.94257 L 706.70477,469.17381 L 701.66157,468.07347 L 699.39978,465.81167 L 702.21174,460.18774 L 698.84961,460.18774 L 694.90674,457.37578 L 694.35658,452.88275 L 693.22568,449.52061 L 696.58781,448.38971 z M 499.19794,455.51203 C 494.58008,495.21266 502.81363,527.84501 520.04316,555.33680 L 516.83386,542.92748 L 520.59333,538.06767 L 520.04316,535.37796 L 516.31425,527.82844 L 513.10494,519.72876 L 506.16673,508.38921 L 503.47702,499.21975 L 502.95742,490.60047 L 500.26771,479.78051 L 500.26771,474.40110 L 500.26771,466.30142 L 500.26771,462.51138 L 499.19794,455.51203 z M 668.22364,566.24774 L 671.03560,567.92881 L 667.67347,572.42184 L 662.63027,572.42184 L 663.18044,568.50954 L 668.22364,566.24774 z M 702.97586,579.94079 L 698.17718,583.18066 L 698.69678,585.35077 L 692.82834,588.59064 L 690.13863,589.11024 L 688.54926,592.35012 L 690.13863,595.03982 L 686.40972,598.82986 L 689.06886,602.58934 L 696.55725,598.82986 L 704.59580,584.80060 L 702.97586,579.94079 z "
     transform="translate(-1.785055,2.327619)"
     style="fill:url(#radialGradient708);fill-opacity:1.0000000;fill-rule:nonzero;stroke:#000000;stroke-width:0.31250000;stroke-linecap:butt;stroke-linejoin:miter;stroke-miterlimit:4.0000000;stroke-opacity:1.0000000"
     id="path4653" />
  <path
     d="M 757.86077,424.54449 C 757.86077,475.08159 705.05825,516.05000 639.92303,516.05000 C 574.78786,516.05000 521.98533,475.08159 521.98533,424.54449 C 521.98533,374.00741 574.78786,333.03900 639.92303,333.03900 C 705.05825,333.03900 757.86077,374.00741 757.86077,424.54449 L 757.86077,424.54449 z "
     style="fill:url(#linearGradient4300);fill-opacity:1.0000000;fill-rule:nonzero;stroke:none;stroke-width:3.7500000;stroke-linejoin:round;stroke-miterlimit:4.0000000;stroke-opacity:1.0000000"
     id="path1123" />
  <path
     d="M 719.08497,588.37782 C 719.08497,609.83252 683.71043,627.22500 640.07373,627.22500 C 596.43705,627.22500 561.06250,609.83252 561.06250,588.37782 C 561.06250,566.92313 596.43705,549.53058 640.07373,549.53058 C 683.71043,549.53058 719.08497,566.92313 719.08497,588.37782 L 719.08497,588.37782 z "
     style="fill:url(#linearGradient770);fill-opacity:1.0000000;fill-rule:nonzero;stroke:none;stroke-width:3.7500000;stroke-linejoin:round;stroke-miterlimit:4.0000000;stroke-opacity:1.0000000"
     id="path5478" />
</svg>
