<?xml version="1.0" encoding="UTF-8" standalone="no"?>
<!-- Created with Inkscape (http://www.inkscape.org/) -->
<svg
   xmlns:dc="http://purl.org/dc/elements/1.1/"
   xmlns:cc="http://creativecommons.org/ns#"
   xmlns:rdf="http://www.w3.org/1999/02/22-rdf-syntax-ns#"
   xmlns:svg="http://www.w3.org/2000/svg"
   xmlns="http://www.w3.org/2000/svg"
   xmlns:xlink="http://www.w3.org/1999/xlink"
   xmlns:sodipodi="http://sodipodi.sourceforge.net/DTD/sodipodi-0.dtd"
   xmlns:inkscape="http://www.inkscape.org/namespaces/inkscape"
   width="1400"
   height="1050"
   id="svg2"
   sodipodi:version="0.32"
   inkscape:version="0.46"
   version="1.0"
   sodipodi:docbase="/home/ciaran/Documents/inkscape/Evangelion Background"
   sodipodi:docname="reiIII_43.svg"
   inkscape:output_extension="org.inkscape.output.svg.inkscape"
   inkscape:export-filename="/home/ciaran/Documents/inkscape/Evangelion Background/background.png"
   inkscape:export-xdpi="90"
   inkscape:export-ydpi="90">
  <defs
     id="defs4">
    <inkscape:perspective
       sodipodi:type="inkscape:persp3d"
       inkscape:vp_x="0 : 525 : 1"
       inkscape:vp_y="0 : 1000 : 0"
       inkscape:vp_z="1680 : 525 : 1"
       inkscape:persp3d-origin="840 : 350 : 1"
       id="perspective2502" />
    <linearGradient
       inkscape:collect="always"
       id="linearGradient3275">
      <stop
         style="stop-color:#000000;stop-opacity:1;"
         offset="0"
         id="stop3277" />
      <stop
         style="stop-color:#000000;stop-opacity:0;"
         offset="1"
         id="stop3279" />
    </linearGradient>
    <linearGradient
       inkscape:collect="always"
       id="linearGradient3267">
      <stop
         style="stop-color:#000000;stop-opacity:1;"
         offset="0"
         id="stop3269" />
      <stop
         style="stop-color:#000000;stop-opacity:0;"
         offset="1"
         id="stop3271" />
    </linearGradient>
    <linearGradient
       id="linearGradient33605">
      <stop
         style="stop-color:#121d4a;stop-opacity:1;"
         offset="0"
         id="stop33607" />
      <stop
         style="stop-color:#6c759c;stop-opacity:1;"
         offset="1"
         id="stop33609" />
    </linearGradient>
    <linearGradient
       id="linearGradient33597">
      <stop
         style="stop-color:#32607c;stop-opacity:1;"
         offset="0"
         id="stop33599" />
      <stop
         style="stop-color:#32607c;stop-opacity:0;"
         offset="1"
         id="stop33601" />
    </linearGradient>
    <linearGradient
       id="linearGradient29663">
      <stop
         style="stop-color:#797979;stop-opacity:1;"
         offset="0"
         id="stop29665" />
      <stop
         style="stop-color:#ffffff;stop-opacity:0.69090909;"
         offset="1"
         id="stop29667" />
    </linearGradient>
    <linearGradient
       id="linearGradient24736">
      <stop
         id="stop24738"
         offset="0"
         style="stop-color:#ffffff;stop-opacity:0;" />
      <stop
         style="stop-color:#ffffff;stop-opacity:1;"
         offset="0.5"
         id="stop24742" />
      <stop
         id="stop24740"
         offset="1"
         style="stop-color:#fff7f7;stop-opacity:0;" />
    </linearGradient>
    <linearGradient
       id="linearGradient19853">
      <stop
         style="stop-color:#f1f6f9;stop-opacity:1;"
         offset="0"
         id="stop19855" />
      <stop
         id="stop19863"
         offset="0.5"
         style="stop-color:#f1f6f9;stop-opacity:0.49803922;" />
      <stop
         style="stop-color:#f1f6f9;stop-opacity:1;"
         offset="1"
         id="stop19857" />
    </linearGradient>
    <linearGradient
       id="linearGradient10081">
      <stop
         style="stop-color:#f1f6f9;stop-opacity:1;"
         offset="0"
         id="stop10083" />
      <stop
         style="stop-color:#c7cce1;stop-opacity:1;"
         offset="1"
         id="stop10085" />
    </linearGradient>
    <linearGradient
       id="linearGradient8127">
      <stop
         style="stop-color:#f5f2ed;stop-opacity:1;"
         offset="0"
         id="stop8129" />
      <stop
         style="stop-color:#e0d8cb;stop-opacity:1;"
         offset="1"
         id="stop8131" />
    </linearGradient>
    <linearGradient
       id="linearGradient4191">
      <stop
         style="stop-color:#000000;stop-opacity:1;"
         offset="0"
         id="stop4193" />
      <stop
         style="stop-color:#cbbba1;stop-opacity:0;"
         offset="1"
         id="stop4195" />
    </linearGradient>
    <linearGradient
       id="linearGradient4146">
      <stop
         style="stop-color:#d8be95;stop-opacity:0"
         offset="0"
         id="stop4148" />
      <stop
         style="stop-color:#e4d9c7;stop-opacity:0"
         offset="1"
         id="stop4150" />
    </linearGradient>
    <linearGradient
       id="linearGradient13921">
      <stop
         style="stop-color:#ffffff;stop-opacity:1;"
         offset="0"
         id="stop13923" />
      <stop
         style="stop-color:#b0b0b0;stop-opacity:0;"
         offset="1"
         id="stop13925" />
    </linearGradient>
    <linearGradient
       id="linearGradient3186">
      <stop
         style="stop-color:#000000;stop-opacity:1;"
         offset="0"
         id="stop3188" />
      <stop
         style="stop-color:#d6d6d6;stop-opacity:1;"
         offset="1"
         id="stop3190" />
    </linearGradient>
    <linearGradient
       inkscape:collect="always"
       xlink:href="#linearGradient3186"
       id="linearGradient3192"
       x1="839.64062"
       y1="97.854912"
       x2="833.70984"
       y2="558.56921"
       gradientUnits="userSpaceOnUse"
       gradientTransform="translate(0.3594,-366.43749)" />
    <linearGradient
       inkscape:collect="always"
       xlink:href="#linearGradient4191"
       id="linearGradient4181"
       x1="841.81989"
       y1="781.8045"
       x2="802.7085"
       y2="778.77405"
       gradientUnits="userSpaceOnUse" />
    <linearGradient
       inkscape:collect="always"
       xlink:href="#linearGradient4191"
       id="linearGradient4197"
       x1="810.54022"
       y1="911.65363"
       x2="831.64117"
       y2="905.08765"
       gradientUnits="userSpaceOnUse" />
    <linearGradient
       inkscape:collect="always"
       xlink:href="#linearGradient4191"
       id="linearGradient4205"
       x1="847.78888"
       y1="803.72961"
       x2="708.36444"
       y2="815.85144"
       gradientUnits="userSpaceOnUse" />
    <linearGradient
       inkscape:collect="always"
       xlink:href="#linearGradient4191"
       id="linearGradient5202"
       x1="833.7688"
       y1="963.09296"
       x2="723.43341"
       y2="912.46619"
       gradientUnits="userSpaceOnUse" />
    <linearGradient
       inkscape:collect="always"
       xlink:href="#linearGradient4191"
       id="linearGradient7156"
       x1="940.70959"
       y1="887.36542"
       x2="928.53607"
       y2="904.53802"
       gradientUnits="userSpaceOnUse" />
    <linearGradient
       inkscape:collect="always"
       xlink:href="#linearGradient8127"
       id="linearGradient8133"
       x1="868.72675"
       y1="812.49585"
       x2="843.21063"
       y2="1332.2194"
       gradientUnits="userSpaceOnUse" />
    <linearGradient
       inkscape:collect="always"
       xlink:href="#linearGradient4191"
       id="linearGradient9110"
       x1="879.84796"
       y1="824.73596"
       x2="885.64618"
       y2="824.73596"
       gradientUnits="userSpaceOnUse" />
    <radialGradient
       inkscape:collect="always"
       xlink:href="#linearGradient10081"
       id="radialGradient10089"
       cx="848.03442"
       cy="589.46136"
       fx="848.03442"
       fy="589.46136"
       r="65.501335"
       gradientTransform="matrix(1.0572509,0.3871241,-0.2888233,0.7887876,121.69946,-194.06528)"
       gradientUnits="userSpaceOnUse" />
    <linearGradient
       inkscape:collect="always"
       xlink:href="#linearGradient4191"
       id="linearGradient11066"
       x1="827.23029"
       y1="633.93451"
       x2="818.08746"
       y2="630.00598"
       gradientUnits="userSpaceOnUse" />
    <linearGradient
       inkscape:collect="always"
       xlink:href="#linearGradient4191"
       id="linearGradient12043"
       x1="811.23859"
       y1="688.44824"
       x2="808.37457"
       y2="659.69824"
       gradientUnits="userSpaceOnUse" />
    <linearGradient
       inkscape:collect="always"
       xlink:href="#linearGradient4191"
       id="linearGradient13020"
       x1="863.72797"
       y1="704.39526"
       x2="862.53723"
       y2="611.84631"
       gradientUnits="userSpaceOnUse" />
    <linearGradient
       inkscape:collect="always"
       xlink:href="#linearGradient4191"
       id="linearGradient13997"
       x1="830.28192"
       y1="672.19452"
       x2="832.36572"
       y2="644.42377"
       gradientUnits="userSpaceOnUse" />
    <linearGradient
       inkscape:collect="always"
       xlink:href="#linearGradient4191"
       id="linearGradient14974"
       x1="838.57977"
       y1="657.8938"
       x2="840.25696"
       y2="650.13068"
       gradientUnits="userSpaceOnUse" />
    <linearGradient
       inkscape:collect="always"
       xlink:href="#linearGradient4191"
       id="linearGradient15951"
       x1="858.65515"
       y1="693.15912"
       x2="858.65515"
       y2="666.01624"
       gradientUnits="userSpaceOnUse" />
    <linearGradient
       inkscape:collect="always"
       xlink:href="#linearGradient4191"
       id="linearGradient16928"
       x1="878.68024"
       y1="659.87"
       x2="860.09033"
       y2="676.6557"
       gradientUnits="userSpaceOnUse" />
    <linearGradient
       inkscape:collect="always"
       xlink:href="#linearGradient4191"
       id="linearGradient17905"
       x1="898.58545"
       y1="617.72357"
       x2="862.54504"
       y2="655.58075"
       gradientUnits="userSpaceOnUse" />
    <linearGradient
       inkscape:collect="always"
       xlink:href="#linearGradient4191"
       id="linearGradient18882"
       x1="881.10553"
       y1="625.66199"
       x2="892.57635"
       y2="625.66199"
       gradientUnits="userSpaceOnUse" />
    <linearGradient
       inkscape:collect="always"
       xlink:href="#linearGradient19853"
       id="linearGradient19859"
       x1="-69.1875"
       y1="642.90625"
       x2="1735.9375"
       y2="642.90625"
       gradientUnits="userSpaceOnUse" />
    <linearGradient
       inkscape:collect="always"
       xlink:href="#linearGradient19853"
       id="linearGradient19861"
       x1="456.08896"
       y1="658.06079"
       x2="1263.1907"
       y2="658.06079"
       gradientUnits="userSpaceOnUse" />
    <linearGradient
       inkscape:collect="always"
       xlink:href="#linearGradient13921"
       id="linearGradient24754"
       gradientUnits="userSpaceOnUse"
       gradientTransform="matrix(-1,0,0,1,1656.7903,9.091368)"
       x1="411.82065"
       y1="598.33881"
       x2="18.822918"
       y2="1109.075" />
    <linearGradient
       inkscape:collect="always"
       xlink:href="#linearGradient13921"
       id="linearGradient24756"
       gradientUnits="userSpaceOnUse"
       x1="416.39209"
       y1="620.91022"
       x2="18.822918"
       y2="1109.075" />
    <linearGradient
       inkscape:collect="always"
       xlink:href="#linearGradient4191"
       id="linearGradient25733"
       x1="877.57001"
       y1="682.82373"
       x2="885.15314"
       y2="682.82373"
       gradientUnits="userSpaceOnUse" />
    <linearGradient
       inkscape:collect="always"
       xlink:href="#linearGradient4191"
       id="linearGradient26710"
       x1="886.57043"
       y1="680.79834"
       x2="894.14386"
       y2="678.83405"
       gradientUnits="userSpaceOnUse" />
    <linearGradient
       inkscape:collect="always"
       xlink:href="#linearGradient4191"
       id="linearGradient27687"
       x1="898.32849"
       y1="685.51184"
       x2="900.12897"
       y2="685.51184"
       gradientUnits="userSpaceOnUse" />
    <linearGradient
       inkscape:collect="always"
       xlink:href="#linearGradient4191"
       id="linearGradient28672"
       x1="902.06622"
       y1="668.54114"
       x2="909.36908"
       y2="668.54114"
       gradientUnits="userSpaceOnUse" />
    <linearGradient
       inkscape:collect="always"
       xlink:href="#linearGradient29663"
       id="linearGradient30650"
       x1="-69.071426"
       y1="976.42859"
       x2="1719.0714"
       y2="976.42859"
       gradientUnits="userSpaceOnUse"
       gradientTransform="translate(0,-32.857143)" />
    <linearGradient
       inkscape:collect="always"
       xlink:href="#linearGradient29663"
       id="linearGradient31631"
       x1="903.78571"
       y1="1715.8538"
       x2="857.85718"
       y2="921.56805"
       gradientUnits="userSpaceOnUse"
       gradientTransform="translate(0,-32.857143)" />
    <linearGradient
       inkscape:collect="always"
       xlink:href="#linearGradient29663"
       id="linearGradient32626"
       gradientUnits="userSpaceOnUse"
       gradientTransform="translate(-57.142857,-30)"
       x1="697.21429"
       y1="1498.7142"
       x2="706.11591"
       y2="931.28564" />
    <linearGradient
       inkscape:collect="always"
       xlink:href="#linearGradient33605"
       id="linearGradient33619"
       x1="825.56946"
       y1="103.8382"
       x2="825.30945"
       y2="701.84851"
       gradientUnits="userSpaceOnUse" />
    <linearGradient
       inkscape:collect="always"
       xlink:href="#linearGradient29663"
       id="linearGradient36556"
       x1="890.45453"
       y1="-110.68364"
       x2="933.88104"
       y2="610.56525"
       gradientUnits="userSpaceOnUse" />
    <linearGradient
       inkscape:collect="always"
       xlink:href="#linearGradient29663"
       id="linearGradient37545"
       x1="319.07889"
       y1="1241.6182"
       x2="643.09357"
       y2="1007.2628"
       gradientUnits="userSpaceOnUse"
       gradientTransform="translate(32.324881,-121.2183)" />
    <linearGradient
       inkscape:collect="always"
       xlink:href="#linearGradient29663"
       id="linearGradient38532"
       x1="1401.2863"
       y1="1094.3625"
       x2="1290.7633"
       y2="829.7027"
       gradientUnits="userSpaceOnUse"
       gradientTransform="translate(-20.203051,14.142135)" />
    <linearGradient
       inkscape:collect="always"
       xlink:href="#linearGradient3267"
       id="linearGradient3273"
       x1="825.18103"
       y1="778.47333"
       x2="898.85718"
       y2="735.61621"
       gradientUnits="userSpaceOnUse" />
    <linearGradient
       inkscape:collect="always"
       xlink:href="#linearGradient3275"
       id="linearGradient3285"
       x1="812.15625"
       y1="760.34583"
       x2="756.44196"
       y2="734.63159"
       gradientUnits="userSpaceOnUse" />
    <linearGradient
       inkscape:collect="always"
       xlink:href="#linearGradient13921"
       id="linearGradient5217"
       x1="371.25333"
       y1="642.25684"
       x2="285.71744"
       y2="831.11401"
       gradientUnits="userSpaceOnUse" />
    <linearGradient
       inkscape:collect="always"
       xlink:href="#linearGradient13921"
       id="linearGradient6202"
       x1="1731.5391"
       y1="616.54248"
       x2="1690.5745"
       y2="778.54248"
       gradientUnits="userSpaceOnUse" />
    <linearGradient
       inkscape:collect="always"
       xlink:href="#linearGradient3267"
       id="linearGradient4230"
       x1="821.03125"
       y1="991.52258"
       x2="820.5"
       y2="1028.5226"
       gradientUnits="userSpaceOnUse" />
    <linearGradient
       inkscape:collect="always"
       xlink:href="#linearGradient33605"
       id="linearGradient2541"
       gradientUnits="userSpaceOnUse"
       x1="825.56946"
       y1="103.8382"
       x2="825.30945"
       y2="701.84851" />
    <linearGradient
       inkscape:collect="always"
       xlink:href="#linearGradient19853"
       id="linearGradient2543"
       gradientUnits="userSpaceOnUse"
       x1="-69.1875"
       y1="642.90625"
       x2="1735.9375"
       y2="642.90625" />
    <linearGradient
       inkscape:collect="always"
       xlink:href="#linearGradient29663"
       id="linearGradient2545"
       gradientUnits="userSpaceOnUse"
       gradientTransform="translate(0,-32.857143)"
       x1="-69.071426"
       y1="976.42859"
       x2="1719.0714"
       y2="976.42859" />
    <linearGradient
       inkscape:collect="always"
       xlink:href="#linearGradient29663"
       id="linearGradient2547"
       gradientUnits="userSpaceOnUse"
       gradientTransform="translate(-20.203051,14.142135)"
       x1="1401.2863"
       y1="1094.3625"
       x2="1290.7633"
       y2="829.7027" />
    <linearGradient
       inkscape:collect="always"
       xlink:href="#linearGradient19853"
       id="linearGradient2549"
       gradientUnits="userSpaceOnUse"
       x1="456.08896"
       y1="658.06079"
       x2="1263.1907"
       y2="658.06079" />
    <linearGradient
       inkscape:collect="always"
       xlink:href="#linearGradient8127"
       id="linearGradient2579"
       gradientUnits="userSpaceOnUse"
       x1="868.72675"
       y1="812.49585"
       x2="843.21063"
       y2="1332.2194" />
    <linearGradient
       inkscape:collect="always"
       xlink:href="#linearGradient3267"
       id="linearGradient2581"
       gradientUnits="userSpaceOnUse"
       x1="821.03125"
       y1="991.52258"
       x2="820.5"
       y2="1028.5226" />
    <linearGradient
       inkscape:collect="always"
       xlink:href="#linearGradient4191"
       id="linearGradient2583"
       gradientUnits="userSpaceOnUse"
       x1="810.54022"
       y1="911.65363"
       x2="831.64117"
       y2="905.08765" />
    <linearGradient
       inkscape:collect="always"
       xlink:href="#linearGradient4191"
       id="linearGradient2585"
       gradientUnits="userSpaceOnUse"
       x1="879.84796"
       y1="824.73596"
       x2="885.64618"
       y2="824.73596" />
    <linearGradient
       inkscape:collect="always"
       xlink:href="#linearGradient4191"
       id="linearGradient2587"
       gradientUnits="userSpaceOnUse"
       x1="847.78888"
       y1="803.72961"
       x2="708.36444"
       y2="815.85144" />
    <linearGradient
       inkscape:collect="always"
       xlink:href="#linearGradient4191"
       id="linearGradient2589"
       gradientUnits="userSpaceOnUse"
       x1="833.7688"
       y1="963.09296"
       x2="723.43341"
       y2="912.46619" />
    <linearGradient
       inkscape:collect="always"
       xlink:href="#linearGradient4191"
       id="linearGradient2591"
       gradientUnits="userSpaceOnUse"
       x1="940.70959"
       y1="887.36542"
       x2="928.53607"
       y2="904.53802" />
    <linearGradient
       inkscape:collect="always"
       xlink:href="#linearGradient4191"
       id="linearGradient2593"
       gradientUnits="userSpaceOnUse"
       x1="841.81989"
       y1="781.8045"
       x2="802.7085"
       y2="778.77405" />
    <linearGradient
       inkscape:collect="always"
       xlink:href="#linearGradient13921"
       id="linearGradient2595"
       gradientUnits="userSpaceOnUse"
       gradientTransform="matrix(-1,0,0,1,1656.7903,9.091368)"
       x1="411.82065"
       y1="598.33881"
       x2="18.822918"
       y2="1109.075" />
    <linearGradient
       inkscape:collect="always"
       xlink:href="#linearGradient3267"
       id="linearGradient2597"
       gradientUnits="userSpaceOnUse"
       x1="825.18103"
       y1="778.47333"
       x2="898.85718"
       y2="735.61621" />
    <linearGradient
       inkscape:collect="always"
       xlink:href="#linearGradient3186"
       id="linearGradient2599"
       gradientUnits="userSpaceOnUse"
       gradientTransform="translate(0.3594,-366.43749)"
       x1="839.64062"
       y1="97.854912"
       x2="833.70984"
       y2="558.56921" />
    <linearGradient
       inkscape:collect="always"
       xlink:href="#linearGradient13921"
       id="linearGradient2601"
       gradientUnits="userSpaceOnUse"
       x1="416.39209"
       y1="620.91022"
       x2="18.822918"
       y2="1109.075" />
    <linearGradient
       inkscape:collect="always"
       xlink:href="#linearGradient3275"
       id="linearGradient2603"
       gradientUnits="userSpaceOnUse"
       x1="812.15625"
       y1="760.34583"
       x2="756.44196"
       y2="734.63159" />
    <linearGradient
       inkscape:collect="always"
       xlink:href="#linearGradient29663"
       id="linearGradient2605"
       gradientUnits="userSpaceOnUse"
       gradientTransform="translate(32.324881,-121.2183)"
       x1="319.07889"
       y1="1241.6182"
       x2="643.09357"
       y2="1007.2628" />
    <linearGradient
       inkscape:collect="always"
       xlink:href="#linearGradient29663"
       id="linearGradient2607"
       gradientUnits="userSpaceOnUse"
       gradientTransform="translate(0,-32.857143)"
       x1="903.78571"
       y1="1715.8538"
       x2="857.85718"
       y2="921.56805" />
    <linearGradient
       inkscape:collect="always"
       xlink:href="#linearGradient29663"
       id="linearGradient2609"
       gradientUnits="userSpaceOnUse"
       gradientTransform="translate(-57.142857,-30)"
       x1="697.21429"
       y1="1498.7142"
       x2="706.11591"
       y2="931.28564" />
    <linearGradient
       inkscape:collect="always"
       xlink:href="#linearGradient13921"
       id="linearGradient2611"
       gradientUnits="userSpaceOnUse"
       x1="371.25333"
       y1="642.25684"
       x2="285.71744"
       y2="831.11401" />
    <linearGradient
       inkscape:collect="always"
       xlink:href="#linearGradient13921"
       id="linearGradient2613"
       gradientUnits="userSpaceOnUse"
       x1="1731.5391"
       y1="616.54248"
       x2="1690.5745"
       y2="778.54248" />
    <radialGradient
       inkscape:collect="always"
       xlink:href="#linearGradient10081"
       id="radialGradient2610"
       gradientUnits="userSpaceOnUse"
       gradientTransform="matrix(1.0572509,0.3871241,-0.2888233,0.7887876,121.69946,-194.06528)"
       cx="848.03442"
       cy="589.46136"
       fx="848.03442"
       fy="589.46136"
       r="65.501335" />
    <linearGradient
       inkscape:collect="always"
       xlink:href="#linearGradient4191"
       id="linearGradient2612"
       gradientUnits="userSpaceOnUse"
       x1="863.72797"
       y1="704.39526"
       x2="862.53723"
       y2="611.84631" />
    <linearGradient
       inkscape:collect="always"
       xlink:href="#linearGradient4191"
       id="linearGradient2614"
       gradientUnits="userSpaceOnUse"
       x1="827.23029"
       y1="633.93451"
       x2="818.08746"
       y2="630.00598" />
    <linearGradient
       inkscape:collect="always"
       xlink:href="#linearGradient4191"
       id="linearGradient2617"
       gradientUnits="userSpaceOnUse"
       x1="811.23859"
       y1="688.44824"
       x2="808.37457"
       y2="659.69824" />
    <linearGradient
       inkscape:collect="always"
       xlink:href="#linearGradient4191"
       id="linearGradient2620"
       gradientUnits="userSpaceOnUse"
       x1="898.58545"
       y1="617.72357"
       x2="862.54504"
       y2="655.58075" />
    <linearGradient
       inkscape:collect="always"
       xlink:href="#linearGradient4191"
       id="linearGradient2623"
       gradientUnits="userSpaceOnUse"
       x1="881.10553"
       y1="625.66199"
       x2="892.57635"
       y2="625.66199" />
    <linearGradient
       inkscape:collect="always"
       xlink:href="#linearGradient4191"
       id="linearGradient2626"
       gradientUnits="userSpaceOnUse"
       x1="902.06622"
       y1="668.54114"
       x2="909.36908"
       y2="668.54114" />
    <linearGradient
       inkscape:collect="always"
       xlink:href="#linearGradient4191"
       id="linearGradient2629"
       gradientUnits="userSpaceOnUse"
       x1="898.32849"
       y1="685.51184"
       x2="900.12897"
       y2="685.51184" />
    <linearGradient
       inkscape:collect="always"
       xlink:href="#linearGradient4191"
       id="linearGradient2632"
       gradientUnits="userSpaceOnUse"
       x1="886.57043"
       y1="680.79834"
       x2="894.14386"
       y2="678.83405" />
    <linearGradient
       inkscape:collect="always"
       xlink:href="#linearGradient4191"
       id="linearGradient2634"
       gradientUnits="userSpaceOnUse"
       x1="878.68024"
       y1="659.87"
       x2="860.09033"
       y2="676.6557" />
    <linearGradient
       inkscape:collect="always"
       xlink:href="#linearGradient4191"
       id="linearGradient2637"
       gradientUnits="userSpaceOnUse"
       x1="877.57001"
       y1="682.82373"
       x2="885.15314"
       y2="682.82373" />
    <linearGradient
       inkscape:collect="always"
       xlink:href="#linearGradient4191"
       id="linearGradient2640"
       gradientUnits="userSpaceOnUse"
       x1="858.65515"
       y1="693.15912"
       x2="858.65515"
       y2="666.01624" />
    <linearGradient
       inkscape:collect="always"
       xlink:href="#linearGradient4191"
       id="linearGradient2642"
       gradientUnits="userSpaceOnUse"
       x1="830.28192"
       y1="672.19452"
       x2="832.36572"
       y2="644.42377" />
    <linearGradient
       inkscape:collect="always"
       xlink:href="#linearGradient4191"
       id="linearGradient2645"
       gradientUnits="userSpaceOnUse"
       x1="838.57977"
       y1="657.8938"
       x2="840.25696"
       y2="650.13068" />
    <linearGradient
       inkscape:collect="always"
       xlink:href="#linearGradient13921"
       id="linearGradient2692"
       gradientUnits="userSpaceOnUse"
       gradientTransform="matrix(-1,0,0,1,2904.2369,8.5714286)"
       x1="1731.5391"
       y1="616.54248"
       x2="1690.5745"
       y2="778.54248" />
    <linearGradient
       inkscape:collect="always"
       xlink:href="#linearGradient13921"
       id="linearGradient2695"
       gradientUnits="userSpaceOnUse"
       gradientTransform="translate(-123.59094,0)"
       x1="371.25333"
       y1="642.25684"
       x2="285.71744"
       y2="831.11401" />
    <linearGradient
       inkscape:collect="always"
       xlink:href="#linearGradient29663"
       id="linearGradient2698"
       gradientUnits="userSpaceOnUse"
       gradientTransform="translate(-180.73379,-30)"
       x1="697.21429"
       y1="1498.7142"
       x2="706.11591"
       y2="931.28564" />
    <linearGradient
       inkscape:collect="always"
       xlink:href="#linearGradient29663"
       id="linearGradient2701"
       gradientUnits="userSpaceOnUse"
       gradientTransform="translate(-123.59094,-32.857143)"
       x1="903.78571"
       y1="1715.8538"
       x2="857.85718"
       y2="921.56805" />
    <linearGradient
       inkscape:collect="always"
       xlink:href="#linearGradient29663"
       id="linearGradient2704"
       gradientUnits="userSpaceOnUse"
       gradientTransform="translate(-91.266056,-121.2183)"
       x1="319.07889"
       y1="1241.6182"
       x2="643.09357"
       y2="1007.2628" />
    <linearGradient
       inkscape:collect="always"
       xlink:href="#linearGradient13921"
       id="linearGradient2707"
       gradientUnits="userSpaceOnUse"
       gradientTransform="translate(-123.59094,0)"
       x1="416.39209"
       y1="620.91022"
       x2="18.822918"
       y2="1109.075" />
    <linearGradient
       inkscape:collect="always"
       xlink:href="#linearGradient3186"
       id="linearGradient2712"
       gradientUnits="userSpaceOnUse"
       gradientTransform="translate(-123.23154,-366.43749)"
       x1="839.64062"
       y1="97.854912"
       x2="833.70984"
       y2="558.56921" />
    <linearGradient
       inkscape:collect="always"
       xlink:href="#linearGradient13921"
       id="linearGradient2715"
       gradientUnits="userSpaceOnUse"
       gradientTransform="matrix(-1,0,0,1,1533.1993,9.091368)"
       x1="411.82065"
       y1="598.33881"
       x2="18.822918"
       y2="1109.075" />
    <linearGradient
       inkscape:collect="always"
       xlink:href="#linearGradient4191"
       id="linearGradient2720"
       gradientUnits="userSpaceOnUse"
       gradientTransform="translate(-123.59094,0)"
       x1="841.81989"
       y1="781.8045"
       x2="802.7085"
       y2="778.77405" />
    <linearGradient
       inkscape:collect="always"
       xlink:href="#linearGradient4191"
       id="linearGradient2723"
       gradientUnits="userSpaceOnUse"
       gradientTransform="translate(-123.59094,0)"
       x1="940.70959"
       y1="887.36542"
       x2="928.53607"
       y2="904.53802" />
    <linearGradient
       inkscape:collect="always"
       xlink:href="#linearGradient4191"
       id="linearGradient2726"
       gradientUnits="userSpaceOnUse"
       gradientTransform="translate(-123.59094,0)"
       x1="833.7688"
       y1="963.09296"
       x2="723.43341"
       y2="912.46619" />
    <linearGradient
       inkscape:collect="always"
       xlink:href="#linearGradient4191"
       id="linearGradient2729"
       gradientUnits="userSpaceOnUse"
       gradientTransform="translate(-123.59094,0)"
       x1="847.78888"
       y1="803.72961"
       x2="708.36444"
       y2="815.85144" />
    <linearGradient
       inkscape:collect="always"
       xlink:href="#linearGradient4191"
       id="linearGradient2732"
       gradientUnits="userSpaceOnUse"
       gradientTransform="translate(-123.59094,0)"
       x1="879.84796"
       y1="824.73596"
       x2="885.64618"
       y2="824.73596" />
    <linearGradient
       inkscape:collect="always"
       xlink:href="#linearGradient4191"
       id="linearGradient2735"
       gradientUnits="userSpaceOnUse"
       gradientTransform="translate(-123.59094,0)"
       x1="810.54022"
       y1="911.65363"
       x2="831.64117"
       y2="905.08765" />
    <linearGradient
       inkscape:collect="always"
       xlink:href="#linearGradient8127"
       id="linearGradient2738"
       gradientUnits="userSpaceOnUse"
       gradientTransform="translate(-123.59094,0)"
       x1="868.72675"
       y1="812.49585"
       x2="843.21063"
       y2="1332.2194" />
    <linearGradient
       inkscape:collect="always"
       xlink:href="#linearGradient3267"
       id="linearGradient2740"
       gradientUnits="userSpaceOnUse"
       gradientTransform="translate(-123.59094,0)"
       x1="821.03125"
       y1="991.52258"
       x2="820.5"
       y2="1028.5226" />
    <linearGradient
       inkscape:collect="always"
       xlink:href="#linearGradient19853"
       id="linearGradient2758"
       gradientUnits="userSpaceOnUse"
       gradientTransform="translate(-123.59094,0)"
       x1="456.08896"
       y1="658.06079"
       x2="1263.1907"
       y2="658.06079" />
    <linearGradient
       inkscape:collect="always"
       xlink:href="#linearGradient29663"
       id="linearGradient2761"
       gradientUnits="userSpaceOnUse"
       gradientTransform="translate(-143.79399,14.142135)"
       x1="1401.2863"
       y1="1094.3625"
       x2="1290.7633"
       y2="829.7027" />
    <linearGradient
       inkscape:collect="always"
       xlink:href="#linearGradient29663"
       id="linearGradient2764"
       gradientUnits="userSpaceOnUse"
       gradientTransform="translate(-123.59094,-32.857143)"
       x1="-69.071426"
       y1="976.42859"
       x2="1719.0714"
       y2="976.42859" />
    <linearGradient
       inkscape:collect="always"
       xlink:href="#linearGradient19853"
       id="linearGradient2767"
       gradientUnits="userSpaceOnUse"
       gradientTransform="translate(-123.59094,0)"
       x1="-69.1875"
       y1="642.90625"
       x2="1735.9375"
       y2="642.90625" />
    <linearGradient
       inkscape:collect="always"
       xlink:href="#linearGradient33605"
       id="linearGradient2770"
       gradientUnits="userSpaceOnUse"
       gradientTransform="translate(-123.59094,0)"
       x1="825.56946"
       y1="103.8382"
       x2="825.30945"
       y2="701.84851" />
  </defs>
  <sodipodi:namedview
     id="base"
     pagecolor="#ffffff"
     bordercolor="#666666"
     borderopacity="1.0"
     gridtolerance="10000"
     guidetolerance="10"
     objecttolerance="10"
     inkscape:pageopacity="0.0"
     inkscape:pageshadow="2"
     inkscape:zoom="0.47428571"
     inkscape:cx="700"
     inkscape:cy="525"
     inkscape:document-units="px"
     inkscape:current-layer="layer1"
     width="1050px"
     height="1680px"
     showguides="true"
     inkscape:guide-bbox="true"
     inkscape:window-width="1020"
     inkscape:window-height="712"
     inkscape:window-x="0"
     inkscape:window-y="0"
     showborder="true"
     showgrid="false" />
  <metadata
     id="metadata7">
    <rdf:RDF>
      <cc:Work
         rdf:about="">
        <dc:format>image/svg+xml</dc:format>
        <dc:type
           rdf:resource="http://purl.org/dc/dcmitype/StillImage" />
        <dc:title>Rei III</dc:title>
        <dc:date>2007 June 20th</dc:date>
        <dc:creator>
          <cc:Agent>
            <dc:title>Kieron Gillespie</dc:title>
          </cc:Agent>
        </dc:creator>
        <dc:rights>
          <cc:Agent>
            <dc:title>GPL</dc:title>
          </cc:Agent>
        </dc:rights>
      </cc:Work>
    </rdf:RDF>
  </metadata>
  <g
     inkscape:label="Layer 1"
     inkscape:groupmode="layer"
     id="layer1">
    <rect
       style="fill:url(#linearGradient2770);fill-opacity:1;stroke:none;stroke-opacity:1"
       id="rect21805"
       width="1702.8572"
       height="1070"
       x="-136.44807"
       y="-2.8571365" />
    <path
       style="fill:url(#linearGradient2767);fill-opacity:1;fill-rule:evenodd;stroke:none;stroke-width:1px;stroke-linecap:butt;stroke-linejoin:miter;stroke-opacity:1"
       d="M 625.94031,-127.84375 L 619.25281,-62.28125 C 623.5065,-101.9179 625.94031,-125.57091 625.94031,-127.84375 z M 619.06531,-60.625 C 589.04159,218.97901 470.37781,1276.2812 470.37781,1276.2812 L 482.50281,1276.2812 L 619.06531,-60.625 z M 458.25281,-40.96875 L 442.09656,-34.90625 L 207.75281,1385.375 L 244.09656,1383.3438 L 458.25281,-40.96875 z M 666.34656,-38.9375 L 611.81531,1405.5625 L 688.56531,1403.5625 L 712.81531,-38.9375 L 666.34656,-38.9375 z M 1122.9402,-28.84375 L 1108.784,-20.75 L 1561.3465,1342.9375 L 1569.4402,1330.8125 L 1122.9402,-28.84375 z M 512.81531,-26.8125 L 482.50281,-14.6875 L 274.40906,1405.5625 L 314.81531,1413.6562 L 512.81531,-26.8125 z M 856.25281,-24.8125 L 825.94031,-18.75 L 1015.8465,1409.625 L 1064.3465,1369.2188 L 856.25281,-24.8125 z M 817.87781,-22.78125 L 797.65906,-14.6875 L 926.97152,1391.4375 L 963.34652,1357.0938 L 817.87781,-22.78125 z M 983.53402,-22.78125 L 955.25282,-20.75 C 955.25282,-10.648474 1197.6902,1300.5312 1197.6902,1300.5312 L 1262.3465,1280.3125 L 983.53402,-22.78125 z M 145.09656,-14.6875 L -192.27844,785.34375 L -186.21594,797.46875 L 155.22156,-10.65625 L 145.09656,-14.6875 z M 1409.8152,-14.6875 L 1605.784,298.4375 L 1611.8465,278.25 L 1409.8152,-14.6875 z"
       id="path15943" />
    <path
       style="fill:url(#linearGradient2764);fill-opacity:1;fill-rule:evenodd;stroke:none;stroke-width:1px;stroke-linecap:butt;stroke-linejoin:miter;stroke-opacity:1"
       d="M -157.87665,860 C -157.87665,860 470.69477,885.71429 544.98048,950 C 619.2662,1014.2858 837.83763,1034.2858 893.55192,931.42857 C 949.26612,828.57143 672.12334,764.28572 1050.6947,814.28572 C 1429.2661,864.28572 1584.9804,741.42858 1584.9804,741.42858 L 1594.9804,1145.7143 L -192.16236,1104.2858 L -157.87665,860 z"
       id="path28692" />
    <path
       style="fill:url(#linearGradient2761);fill-opacity:1;fill-rule:evenodd;stroke:none;stroke-width:1px;stroke-linecap:butt;stroke-linejoin:miter;stroke-opacity:1"
       d="M 1195.6683,1021.7157 C 1195.6683,1021.7157 946.16062,1023.7361 1004.7494,900.49743 C 1063.3383,777.25882 844.8664,618.34025 1219.9119,613.61411 C 1235.8582,613.41316 890.60212,716.64967 902.72392,900.49743 C 914.84592,1084.3451 1062.3281,1138.8935 1062.3281,1138.8935 C 1062.3281,1138.8935 1123.12,1103.8072 1086.7545,1160.3758 C 1050.389,1216.9443 1270.6023,1206.8428 1270.6023,1206.8428 C 1270.6023,1206.8428 1245.978,1178.8022 1195.6683,1021.7157 z"
       id="path37555"
       sodipodi:nodetypes="ccsccscc" />
    <path
       style="fill:url(#linearGradient2758);fill-opacity:1;fill-rule:evenodd;stroke:none;stroke-width:1px;stroke-linecap:butt;stroke-linejoin:miter;stroke-opacity:1"
       d="M 898.68342,-24.802308 L 1139.0997,1359.1067 L 332.99801,1377.2894 L 553.21127,-61.167799 L 898.68342,-24.802308 z"
       id="path15947"
       inkscape:export-xdpi="90"
       inkscape:export-ydpi="90" />
    <g
       id="g28674"
       transform="translate(-123.59094,0)">
      <path
         sodipodi:nodetypes="cccccccccccccccccccccccc"
         id="path5159"
         d="M 830.89286,596.25 C 840.29719,594.5923 851.78572,597.5 851.78572,597.5 C 851.78572,597.5 858.24121,596.53186 866.78572,598.03571 C 874.32007,603.70644 874.74832,605.27266 875.35714,605.53571 C 893.39109,611.98595 900.53572,622.32143 900.53572,622.32143 C 900.53572,622.32143 906.43251,625.9292 911.12373,641.79097 C 910.13284,646.41479 910.71429,648.39286 910.71429,648.39286 C 910.71429,648.39286 907.2932,643.47031 904.46429,641.42857 C 905.04465,646.20536 910.49108,655.89286 913.03572,667.5 C 913.93886,674.30892 914.64286,687.85714 914.64286,687.85714 C 914.64286,687.85714 910.73595,684.30847 908.21429,681.60714 C 906.07143,682.94642 905.90446,685.38669 906.07143,693.21428 C 900.55629,697.75888 899.91707,694.73477 899.91707,694.73477 C 899.91707,694.73477 898.10838,699.63466 899.82887,704.78182 C 888.92246,703.61553 875.86312,695.87798 875.86312,695.87798 L 793.57143,697.32143 L 793.36594,690.26151 C 793.36594,690.26151 794.25245,679.56495 791.07143,675.35714 C 788.52176,678.72548 786.07143,682.14286 786.07143,682.14286 C 786.07143,682.14286 784.03318,669.89014 784.82143,665.89286 C 785.35714,665.17858 792.67857,648.03571 792.67857,648.03571 C 792.67857,648.03571 789.39272,651.1918 785.35714,658.21428 C 785.86725,644.52864 787.14286,638.75 787.14286,638.75 C 787.14286,638.75 797.24487,615.58537 830.89286,596.25 z"
         style="fill:url(#radialGradient2610);fill-opacity:1;fill-rule:evenodd;stroke:#000000;stroke-width:1px;stroke-linecap:butt;stroke-linejoin:miter;stroke-opacity:1" />
      <path
         id="path15910"
         d="M 850.80098,611.84633 C 850.80098,611.84633 849.79083,636.84761 851.5586,640.38314 C 853.32636,643.91868 870.7515,692.65854 870.7515,692.65854 C 870.7515,692.65854 862.41774,660.33366 855.09413,642.65599 C 847.77052,624.97832 855.34667,634.8273 850.80098,611.84633 z"
         style="fill:url(#linearGradient2612);fill-opacity:1;fill-rule:evenodd;stroke:none;stroke-width:1px;stroke-linecap:butt;stroke-linejoin:miter;stroke-opacity:1" />
      <path
         id="path15906"
         d="M 828.32509,610.58364 C 828.32509,610.58364 818.98118,635.07984 820.24387,648.96944 C 821.50656,662.85904 810.64742,634.57477 828.32509,610.58364 z"
         style="fill:url(#linearGradient2614);fill-opacity:1;fill-rule:evenodd;stroke:none;stroke-width:1px;stroke-linecap:butt;stroke-linejoin:miter;stroke-opacity:1" />
      <path
         id="path15908"
         d="M 808.37458,648.46436 C 808.37458,648.46436 802.81874,673.46564 807.11188,682.80955 C 811.40503,692.15346 793.72736,672.96056 808.37458,648.46436 z"
         style="fill:url(#linearGradient2617);fill-opacity:1;fill-rule:evenodd;stroke:none;stroke-width:1px;stroke-linecap:butt;stroke-linejoin:miter;stroke-opacity:1" />
      <path
         id="path15912"
         d="M 875.54972,612.35141 C 875.54972,612.35141 889.94439,672.70802 886.91394,684.07224 C 883.88348,695.43646 897.268,653.26259 875.54972,612.35141 z"
         style="fill:url(#linearGradient2620);fill-opacity:1;fill-rule:evenodd;stroke:none;stroke-width:1px;stroke-linecap:butt;stroke-linejoin:miter;stroke-opacity:1" />
      <path
         id="path15914"
         d="M 881.10556,614.11918 C 881.10556,614.11918 891.71216,632.807 891.9647,636.34253 C 892.21724,639.87807 896.00531,632.55446 881.10556,614.11918 z"
         style="fill:url(#linearGradient2623);fill-opacity:1;fill-rule:evenodd;stroke:none;stroke-width:1px;stroke-linecap:butt;stroke-linejoin:miter;stroke-opacity:1" />
      <path
         id="path15916"
         d="M 902.06622,653.76766 L 906.61191,683.31463 C 906.61191,683.31463 915.19821,682.55701 902.06622,653.76766 z"
         style="fill:url(#linearGradient2626);fill-opacity:1;fill-rule:evenodd;stroke:none;stroke-width:1px;stroke-linecap:butt;stroke-linejoin:miter;stroke-opacity:1" />
      <path
         id="path15918"
         d="M 899.2883,675.48594 C 899.2883,675.48594 897.52054,693.92123 898.78323,695.43646 C 900.04592,696.95169 900.80353,681.04178 899.2883,675.48594 z"
         style="fill:url(#linearGradient2629);fill-opacity:1;fill-rule:evenodd;stroke:none;stroke-width:1px;stroke-linecap:butt;stroke-linejoin:miter;stroke-opacity:1" />
      <path
         id="path15920"
         d="M 892.97485,655.53543 C 892.97485,655.53543 892.72231,697.7093 893.985,701.49737 C 895.24769,705.28544 888.42916,692.406 892.97485,655.53543 z"
         style="fill:url(#linearGradient2632);fill-opacity:1;fill-rule:evenodd;stroke:none;stroke-width:1px;stroke-linecap:butt;stroke-linejoin:miter;stroke-opacity:1" />
      <path
         id="path15922"
         d="M 867.21596,652.25243 C 867.21596,652.25243 873.52941,688.87046 873.27688,692.15346 C 873.02434,695.43646 878.0751,673.97071 867.21596,652.25243 z"
         style="fill:url(#linearGradient2634);fill-opacity:1;fill-rule:evenodd;stroke:none;stroke-width:1px;stroke-linecap:butt;stroke-linejoin:miter;stroke-opacity:1" />
      <path
         id="path15924"
         d="M 877.57002,663.61665 C 877.57002,663.61665 885.39871,697.20422 884.89363,700.9923 C 884.38855,704.78037 888.17663,699.47707 877.57002,663.61665 z"
         style="fill:url(#linearGradient2637);fill-opacity:1;fill-rule:evenodd;stroke:none;stroke-width:1px;stroke-linecap:butt;stroke-linejoin:miter;stroke-opacity:1" />
      <path
         id="path15926"
         d="M 853.32636,662.10142 C 853.32636,662.10142 861.15505,681.54686 863.68043,683.56716 C 866.20581,685.58747 852.82129,677.00117 853.32636,662.10142 z"
         style="fill:url(#linearGradient2640);fill-opacity:1;fill-rule:evenodd;stroke:none;stroke-width:1px;stroke-linecap:butt;stroke-linejoin:miter;stroke-opacity:1" />
      <path
         id="path15928"
         d="M 832.3657,644.42375 C 832.3657,644.42375 830.85047,657.55574 827.0624,661.59635 C 823.27433,665.63696 832.3657,644.42375 832.3657,644.42375 z"
         style="fill:url(#linearGradient2642);fill-opacity:1;fill-rule:evenodd;stroke:none;stroke-width:1px;stroke-linecap:butt;stroke-linejoin:miter;stroke-opacity:1" />
      <path
         id="path15930"
         d="M 836.91138,645.93898 C 836.91138,645.93898 837.41646,656.54558 839.6893,657.80827 C 841.96215,659.07096 836.65885,645.93898 836.91138,645.93898 z"
         style="fill:url(#linearGradient2645);fill-opacity:1;fill-rule:evenodd;stroke:none;stroke-width:1px;stroke-linecap:butt;stroke-linejoin:miter;stroke-opacity:1" />
    </g>
    <path
       style="fill:url(#linearGradient2738);fill-opacity:1;fill-rule:evenodd;stroke:url(#linearGradient2740);stroke-width:1px;stroke-linecap:butt;stroke-linejoin:miter;stroke-opacity:1"
       d="M 711.40906,648.21875 C 703.89637,669.0468 696.06531,680 696.06531,680 C 696.06531,680 695.15271,676.97097 693.90906,671.78125 C 690.01375,680.35486 688.56531,685 688.56531,685 C 688.56531,685 636.10207,698.27662 627.65906,704.09375 C 619.13021,709.97005 614.87293,738.99766 611.59656,760.15625 C 608.35836,781.06828 610.84974,788.24441 612.28406,806.53125 C 613.71841,824.81807 613.37103,830.62421 615.56531,838.625 C 612.20374,861.27302 609.72156,879.46875 609.72156,879.46875 C 603.37161,891.32414 598.24382,904.47666 595.37781,918.4375 C 596.13543,923.99336 576.94031,1017.1562 576.94031,1017.1562 C 576.94027,1028.9043 587.87195,1027.9244 600.65906,1023.25 L 599.15906,1027.7812 C 599.15906,1027.7812 645.6533,1063.8968 696.16112,1060.6156 C 746.66893,1057.3343 801.19031,1014.6562 801.19031,1014.6562 C 801.19031,1014.6563 744.15168,886.92082 744.12781,880.28125 C 744.10394,873.89422 754.62781,844.65625 754.62781,844.65625 L 757.15906,833.09375 C 757.66969,832.72162 758.20745,832.29656 758.78406,831.8125 C 771.34896,821.26419 769.05274,809.18205 765.40906,801.4375 L 778.59656,778 L 787.56531,868.1875 C 791.71513,883.30901 795.56782,899.32714 796.90906,915.15625 C 796.15142,920.45954 827.47156,1007.3125 827.47156,1007.3125 C 827.47156,1007.3125 832.45594,1010.6605 837.44031,1010.473 C 842.42468,1010.2855 847.40906,1006.5625 847.40906,1006.5625 C 847.40904,1006.5625 839.82895,924.23668 832.25281,913.125 C 826.64292,904.8972 819.95555,886.56007 816.12781,874.9375 L 816.59656,863.875 C 816.59656,863.875 813.2009,803.78435 814.47156,758.21875 C 805.13562,720.73438 779.25281,713.9375 779.25281,713.9375 L 732.75281,679.9375 C 732.75281,679.93752 725.19225,673.44282 720.34656,658.5625 C 720.29909,672.21899 721.06531,677.5 721.06531,677.5 C 721.06531,677.5 714.50233,667.67053 711.40906,648.21875 z M 635.56531,887.5 C 636.88024,893.54713 637.81531,897.71875 637.81531,897.71875 C 637.81529,897.71873 635.15541,905.48407 633.25281,909.5 C 633.43914,903.99189 633.02599,898.68968 632.47156,894.34375 C 632.47156,894.34375 633.87119,892.23218 635.56531,887.5 z M 631.72156,918.65625 C 631.95809,922.46116 632.50281,926.25 632.50281,926.25 L 616.37781,975.375 C 618.85547,960.6414 628.06998,934.14447 631.72156,918.65625 z"
       id="path5161"
       sodipodi:nodetypes="ccccssscccccczcsccsccccczcsccccccccccccccccc" />
    <path
       style="fill:url(#linearGradient2735);fill-opacity:1;fill-rule:evenodd;stroke:none;stroke-width:1px;stroke-linecap:butt;stroke-linejoin:miter;stroke-opacity:1"
       d="M 694.12755,878.27407 C 694.12755,878.27407 700.18846,922.2157 699.68338,930.29692 C 699.17831,938.37814 712.81537,915.14464 694.12755,878.27407 z"
       id="path14907" />
    <path
       style="fill:url(#linearGradient2732);fill-opacity:1;fill-rule:evenodd;stroke:none;stroke-width:1px;stroke-linecap:butt;stroke-linejoin:miter;stroke-opacity:1"
       d="M 761.55523,815.89715 L 760.04,830.29182 L 756.757,833.57482 C 756.757,833.57482 759.02985,819.43268 761.55523,815.89715 z"
       id="path14909" />
    <path
       style="fill:url(#linearGradient2729);fill-opacity:1;fill-rule:evenodd;stroke:none;stroke-width:1px;stroke-linecap:butt;stroke-linejoin:miter;stroke-opacity:1"
       d="M 625.94225,776.24866 C 625.94225,776.24866 624.36689,819.29343 625.64639,840.39335 C 626.70681,857.88042 635.79124,886.10275 635.79124,886.10275 C 635.79124,886.10275 627.96255,890.3959 625.94225,878.27407 C 623.92194,866.15224 616.85088,819.43268 619.88133,799.98724 C 622.91179,780.54181 626.19479,775.49105 625.94225,776.24866 z"
       id="path14911"
       sodipodi:nodetypes="cscssc" />
    <path
       style="fill:url(#linearGradient2726);fill-opacity:1;fill-rule:evenodd;stroke:none;stroke-width:1px;stroke-linecap:butt;stroke-linejoin:miter;stroke-opacity:1"
       d="M 633.74119,908.67221 C 633.74119,908.67221 605.23412,1021.7157 600.4359,1022.4733 C 595.63767,1023.231 621.8719,917.2585 633.74119,908.67221 z"
       id="path14913"
       sodipodi:nodetypes="csc" />
    <path
       style="fill:url(#linearGradient2723);fill-opacity:1;fill-rule:evenodd;stroke:none;stroke-width:1px;stroke-linecap:butt;stroke-linejoin:miter;stroke-opacity:1"
       d="M 792.36488,880.54691 C 792.36488,880.54691 805.49686,891.65859 809.79001,889.63828 C 814.08316,887.61798 797.66818,916.40733 797.66818,916.40733 L 792.36488,880.54691 z"
       id="path14917" />
    <path
       style="fill:url(#linearGradient2720);fill-opacity:1;fill-rule:evenodd;stroke:none;stroke-width:1px;stroke-linecap:butt;stroke-linejoin:miter;stroke-opacity:1"
       d="M 702.35612,745.18648 C 690.48682,765.13699 689.72922,824.48345 689.72922,824.48345 C 689.72922,824.48345 675.33452,764.63192 702.35612,745.18648 z"
       id="path14905"
       sodipodi:nodetypes="ccc" />
    <path
       style="fill:url(#linearGradient2715);fill-opacity:1;fill-rule:evenodd;stroke:none;stroke-width:1px;stroke-linecap:butt;stroke-linejoin:miter;stroke-opacity:1"
       d="M 1175.1278,440.6875 C 1103.717,440.81568 1041.3096,448.8807 1017.0028,473.1875 C 1005.6623,484.52793 994.83452,497.1983 984.40902,510.59375 C 923.80392,578.45148 858.99365,681.88655 810.90906,701.28125 C 774.59473,715.92844 752.34428,723.13819 741.47156,729.96875 C 739.98356,729.54097 738.2957,728.88944 736.31531,728 C 723.18335,719.91881 720.12781,717.15625 720.12781,717.15625 C 720.1278,717.15627 728.20712,728.26856 732.75281,729.53125 C 734.2325,729.94227 732.95863,730.2279 730.47156,730.25 C 726.89842,728.66567 722.62945,726.6573 720.03406,725.09375 C 715.0354,722.08238 713.72156,721.03124 713.72156,721.03125 C 713.72157,721.03126 715.83486,725.18114 718.59656,728.9375 C 715.78493,728.26987 713.36695,727.33208 712.31531,726 C 708.52722,721.20176 707.25281,721.9375 707.25281,721.9375 C 707.25282,721.93752 709.54579,729.01348 714.59656,730.78125 C 716.29096,731.37428 715.8102,732.15994 714.34656,732.90625 C 713.9625,732.72354 713.58625,732.54235 713.28406,732.34375 C 709.17222,729.64148 706.06529,728.43749 706.06531,728.4375 C 706.06532,728.4375 708.53613,731.00244 711.69031,733.90625 C 708.45924,734.87089 704.24322,735.47958 702.97156,734.84375 C 700.44619,733.58106 703.46299,741.91894 710.53406,740.65625 C 715.22123,739.81923 719.47213,742.40671 719.15906,744.46875 C 713.8508,745.7102 706.52315,746.94752 705.25281,746.84375 C 704.33055,746.7684 706.72115,747.15731 709.62781,747.625 C 704.82841,749.13648 703.72156,751.75 703.72156,751.75 C 703.72156,751.75002 706.50615,750.49825 709.28406,753.78125 C 709.3804,753.8951 709.48625,753.99883 709.59656,754.09375 C 708.0896,754.72393 706.76471,755.15631 706.00281,755.1875 C 708.33473,755.86057 717.33862,758.76798 720.81531,757.125 C 722.81188,756.1815 721.09685,757.53242 718.34656,759.21875 C 715.63609,759.74024 712.87571,759.80073 710.78406,759.0625 C 706.49093,757.54729 706.50281,759.0625 706.50281,759.0625 C 706.50283,759.06251 708.71705,761.14239 711.84656,762.625 C 710.58141,763.13864 709.46494,763.45342 708.69031,763.4375 C 704.82031,763.35797 708.79786,770.32376 716.31531,767.625 C 719.63538,766.43311 721.73733,764.71868 723.06531,763.1875 C 723.21971,763.19819 723.38358,763.21433 723.50281,763.25 C 722.86823,764.63411 722.18388,766.14577 721.25281,768 C 719.83944,769.17087 717.99055,770.3299 715.84656,771.1875 C 708.27041,774.21797 708.28406,774.21875 708.28406,774.21875 C 708.28407,774.21876 712.59804,774.88951 717.25281,775.15625 C 715.79571,777.39036 714.37858,779.0337 713.31531,779.21875 C 709.61417,779.86291 709.50279,781.50001 709.50281,781.5 C 709.50283,781.49998 720.3869,782.13373 722.03406,778.71875 C 722.93685,776.84706 724.31898,777.18125 724.87781,778.84375 C 722.50654,779.63711 719.86911,780.53811 717.87781,781.3125 C 713.3321,783.08025 711.56531,785.84375 711.56531,785.84375 C 711.56531,785.84376 718.22671,785.4442 724.31531,784.125 C 724.15966,784.49752 723.99165,784.85719 723.78406,785.25 C 720.5473,791.37471 720.40903,795.65626 720.40906,795.65625 C 720.40908,795.65627 728.08948,785.38928 730.37781,782.5 C 730.49436,782.35284 730.60353,782.22817 730.72156,782.09375 C 731.82457,781.58142 732.74814,781.02588 733.34656,780.375 C 734.27844,780.20157 735.28775,780.43647 736.44031,781.25 C 736.53667,784.86227 736.61727,789.44842 736.31531,790.65625 C 735.81026,792.67658 739.59656,795.1875 739.59656,795.1875 C 739.59656,795.18749 739.47356,789.46339 739.81531,784.65625 C 740.23194,785.13292 740.63868,785.56971 741.03406,785.96875 C 741.3797,788.13323 742.08556,790.03428 743.62781,790.125 C 746.61652,790.30082 745.80162,791.55698 745.03406,789.25 C 745.89032,789.76652 746.40905,789.93751 746.40906,789.9375 C 746.40906,789.9375 745.78262,789.5037 744.90906,788.75 C 744.63189,787.71259 744.37781,786.16402 744.37781,783.8125 C 744.37782,774.7211 745.15478,775.73556 748.69031,780.28125 C 752.22585,784.82696 748.42509,779.79568 749.94031,775.25 C 751.45553,770.70429 752.70125,778.76348 754.72156,780.53125 C 754.89693,780.6847 754.98821,780.82045 755.09656,780.9375 C 754.72252,780.20266 754.23416,778.59884 754.47156,775.75 C 754.57532,774.50502 756.4622,772.93977 759.19031,771.09375 C 766.32609,773.51722 774.90552,777.06203 783.90906,780.96875 C 775.45517,776.88143 767.64431,772.60303 762.75281,768.78125 C 763.45924,768.33548 764.13742,767.90476 764.87781,767.4375 C 770.66618,769.26119 774.56531,771.67872 774.56531,772.21875 C 778.6059,776.25934 858.40906,797.46875 858.40906,797.46875 C 858.40905,797.46876 783.67936,777.24683 781.65906,765.125 C 781.57383,764.61361 781.85381,764.19607 782.44031,763.875 C 829.75986,774.11464 928.25272,805.53127 928.25282,805.53125 C 928.25282,805.53124 891.60982,788.51415 859.12781,772.78125 C 912.78012,782.65092 974.59652,796.4375 974.59652,796.4375 C 974.59652,796.43749 922.17772,777.83217 882.40902,762.78125 C 896.32792,766.42009 909.00162,769.74524 916.44022,771.4375 C 933.16712,775.24279 901.37722,761.72124 875.25282,747.46875 C 894.85752,750.5178 918.20772,754.56556 936.56522,757.625 C 956.20172,766.77238 972.66932,774.82116 977.59652,777.21875 C 973.10022,774.97817 958.36792,767.57618 941.40902,758.4375 C 948.12082,759.54141 954.14022,760.50496 958.40902,761.09375 C 979.84642,764.05062 929.89852,748.61086 898.78402,733.78125 C 889.69222,727.94529 882.15992,722.47918 877.94022,718.125 C 877.36402,717.53034 876.96672,717.03048 876.72152,716.625 C 877.28362,716.02689 878.47132,715.68573 880.15902,715.625 C 903.02562,721.35099 1023.9715,784.00002 1023.9715,784 C 1023.9715,784.00001 958.16682,746.25664 915.37782,723.25 C 954.70972,734.8725 1010.6013,755.89017 1024.534,761.125 C 1035.9742,767.5052 1045.7056,774.07511 1052.5028,780.65625 C 1038.8599,766.37261 1028.5387,755.02634 1020.5028,745.75 C 1052.2561,756.3731 1078.6278,765.125 1078.6278,765.125 C 1078.6278,765.12501 1047.0862,750.87045 1011.5965,735.21875 C 1002.7289,724.37619 997.94492,717.292 994.53402,711.84375 C 1005.8908,714.74153 1017.5718,717.92538 1029.034,721.40625 C 1038.1044,728.6602 1045.6088,735.22806 1049.4715,739.71875 C 1046.1094,734.46435 1043.3582,729.64874 1040.9715,725.1875 C 1052.3682,728.91235 1063.2879,732.9008 1073.159,737.125 C 1073.4493,738.3258 1073.7268,739.51538 1074.0028,740.75 C 1073.8314,739.59274 1073.6973,738.46218 1073.534,737.3125 C 1081.3684,740.67954 1088.5588,744.17309 1094.7215,747.8125 C 1088.1101,742.06321 1080.3864,735.35689 1072.3152,728.4375 C 1069.5993,707.09443 1068.2245,687.57782 1067.534,672.125 C 1072.2879,673.67501 1076.1986,675.4658 1078.7215,677.5 C 1076.0973,673.29488 1072.2976,667.98631 1067.159,662.78125 C 1066.6774,647.41018 1066.909,637.96875 1066.909,637.96875 C 1066.909,637.96874 1129.2908,777.50885 1168.2528,868.375 C 1138.5729,790.41208 1097.9414,680.72585 1084.6278,644.71875 C 1086.5116,646.08303 1088.3947,647.56786 1090.284,649.1875 C 1100.9114,668.05894 1117.3392,697.34744 1135.5028,730.40625 C 1141.3995,747.154 1143.497,750.1158 1143.1902,744.4375 C 1148.0653,753.36002 1152.9367,762.31403 1157.7215,771.1875 C 1152.4507,759.30934 1147.1657,747.20697 1142.034,735.28125 C 1138.8505,716.12015 1130.065,677.56775 1122.9715,647.375 C 1128.2395,655.30666 1134.1067,664.86475 1140.3465,675.53125 C 1162.4596,732.2359 1191.6388,807.49226 1206.3152,847.28125 C 1190.1824,798.21926 1156.1152,691.64968 1137.7215,634 C 1157.4752,660.78906 1186.9781,706.09292 1196.8152,721.3125 C 1184.3677,701.89789 1139.551,631.15435 1142.8152,624.28125 C 1142.9453,624.00745 1143.2658,623.96029 1143.7528,624.125 C 1179.5211,681.18374 1259.837,809.86461 1305.2528,887.15625 C 1277.0652,831.55253 1235.6193,748.18584 1202.159,682.90625 C 1236.3109,720.26476 1278.4589,768.08402 1309.8152,803.9375 C 1275.0706,763.77712 1227.4192,708.13203 1193.909,666.875 C 1186.4836,652.49238 1179.6596,639.45309 1173.5652,628.03125 C 1194.3956,647.49932 1229.1281,681.16512 1264.7215,715.96875 C 1308.188,766.61242 1347.3465,812.625 1347.3465,812.625 C 1347.3465,812.625 1328.8366,787.71214 1304.4402,754.96875 C 1349.8007,799.54357 1388.0965,837.43749 1388.0965,837.4375 C 1388.0965,837.43749 1333.8121,780.2448 1279.1902,721.09375 C 1246.8003,677.7144 1210.82,629.72161 1188.5652,600.65625 C 1194.3866,604.5839 1201.2801,609.6259 1208.909,615.46875 C 1236.887,643.89422 1268.534,676.25 1268.534,676.25 C 1268.534,676.25001 1258.0581,661.79718 1244.9402,644.34375 C 1313.8992,701.36643 1404.3153,783.84377 1404.3152,783.84375 C 1404.3153,783.84376 1264.2735,653.87372 1210.1278,599.90625 C 1204.3642,593.04336 1199.3287,587.43554 1195.8152,584.3125 C 1177.6324,568.15009 1428.159,766.15625 1428.159,766.15625 C 1428.159,766.15623 1368.075,711.33406 1310.1902,659.34375 C 1384.7913,713.68272 1466.1903,774.68749 1466.1902,774.6875 C 1466.1902,774.6875 1307.8377,644.81481 1247.6278,595.28125 C 1328.6139,648.19123 1499.8777,761.09375 1499.8778,761.09375 C 1499.8777,761.09375 1398.3438,682.98463 1317.6278,621.21875 C 1422.0728,674.53046 1576.3152,755.28124 1576.3152,755.28125 C 1576.3152,755.28124 1290.3463,587.82837 1264.5965,573.65625 C 1261.3677,571.8792 1264.567,572.71008 1272.3152,575.375 C 1357.2285,622.15195 1517.034,711.59375 1517.034,711.59375 C 1517.034,711.59376 1436.747,658.2568 1362.784,609.3125 C 1485.3398,656.42819 1677.6278,732.31251 1677.6278,732.3125 C 1677.6277,732.31248 1327.1104,581.84519 1303.284,569.25 C 1289.9139,562.18224 1381.8336,598.2124 1472.0965,633.5 C 1541.4791,665.39299 1599.8778,692.40625 1599.8778,692.40625 C 1599.8777,692.40625 1555.3555,669.12336 1531.8152,656.8125 C 1589.085,679.08988 1634.4112,696.44281 1633.2528,694.65625 C 1631.1271,691.3777 1516.708,641.09931 1431.7528,604.46875 C 1423.5855,600.1939 1416.7671,596.60215 1408.7528,592.40625 C 1509.3229,631.20792 1688.4715,700.09373 1688.4715,700.09375 C 1688.4715,700.09374 1419.0111,579.41421 1397.5652,565.59375 C 1373.3774,550.00625 1729.4715,700.59376 1729.4715,700.59375 C 1729.4715,700.59374 1576.2199,629.63045 1478.8778,584.03125 C 1520.3578,596.86755 1561.0361,609.53234 1598.3465,621.1875 C 1657.8638,644.26658 1707.8465,663.8125 1707.8465,663.8125 C 1707.8465,663.8125 1680.0323,651.46567 1641.7215,634.75 C 1685.772,648.54367 1716.034,658.0625 1716.034,658.0625 C 1716.034,658.06251 1665.7765,640.3186 1605.8465,619.15625 C 1552.7032,596.18178 1489.6499,569.40977 1444.284,551.71875 C 1584.4108,591.38335 1797.8465,653 1797.8465,653 C 1797.8465,652.99998 1397.2888,525.39608 1368.534,511.59375 C 1343.2802,499.47193 1749.3871,621.70701 1745.3465,616.65625 C 1741.3059,611.60551 1437.6164,517.84083 1411.9715,505.53125 C 1386.7178,493.40943 1806.9402,617.65625 1806.9402,617.65625 C 1806.9402,617.65624 1502.4794,510.10506 1472.5965,499.46875 C 1442.797,488.86215 1852.409,614.625 1852.409,614.625 C 1852.409,614.62498 1497.5145,487.22145 1474.5965,479.25 C 1451.363,471.16877 1825.1278,577.25 1825.1278,577.25 C 1825.1278,577.25 1561.909,486.22657 1480.659,469.15625 C 1399.409,452.08593 1311.4573,440.44279 1175.1278,440.6875 z M 1309.8152,803.9375 C 1360.6122,862.54094 1360.8312,862.32428 1309.8152,803.9375 z M 1305.2528,887.15625 C 1326.2797,928.63468 1339.9722,954.83224 1337.2215,945.96875 C 1335.1425,939.26969 1322.8692,917.13733 1305.2528,887.15625 z M 1078.7215,677.5 C 1083.7668,685.58502 1084.4491,689.65145 1081.659,681.28125 C 1081.2087,679.9303 1080.1906,678.68449 1078.7215,677.5 z M 1094.7215,747.8125 C 1114.7499,765.22931 1125.5837,774.70591 1109.9402,759.0625 C 1106.0669,755.18913 1100.8841,751.45184 1094.7215,747.8125 z M 783.90906,780.96875 C 797.29367,787.44 811.84863,793.24751 819.12781,796.0625 C 808.43617,791.84528 795.84402,786.14741 783.90906,780.96875 z M 755.09656,780.9375 C 755.44921,781.63032 755.6497,781.53508 755.09656,780.9375 z M 706.00281,755.1875 C 705.47113,755.03404 705.17701,754.96655 705.50281,755.125 C 705.62255,755.18323 705.79305,755.19612 706.00281,755.1875 z M 1400.159,546.3125 C 1401.5791,546.26177 1417.2006,551.89381 1440.7215,560.71875 C 1426.7681,555.76494 1412.4412,550.68706 1400.159,546.3125 z M 1009.5028,664.46875 C 1015.4447,664.478 1022.3616,664.79225 1029.534,665.40625 C 1044.3776,674.74348 1060.296,693.27236 1070.3465,726.75 C 1053.9002,712.67999 1035.9357,697.70465 1021.1902,686.5625 C 1016.5304,680.4777 1010.2055,675.35193 999.50282,670.3125 C 996.41122,668.85686 994.43052,667.30541 993.34652,665.8125 C 996.24872,664.90897 1002.1059,664.45723 1009.5028,664.46875 z"
       id="path13929"
       sodipodi:nodetypes="cscscccscsscscscsscsscsccsccscsccsscccsccssscsccssscccscccscccsssscsccccccscscccsccccscsccscccccccccccccccccccccccccccccccscccccccccscccccscsccccscsscccsscccsccsssccccccccssscscscsccccsccsccscccccccsccccccccscc" />
    <path
       style="fill:url(#linearGradient2712);fill-opacity:1;fill-rule:evenodd;stroke:none;stroke-width:1px;stroke-linecap:butt;stroke-linejoin:miter;stroke-opacity:1"
       d="M 684.98726,0 L 677.48726,20 L 697.11226,207.5 L 707.48726,220.3438 L 727.48726,188.9062 L 726.76846,172.125 L 752.83096,174.2812 L 753.20596,165 L 759.61226,173.5625 L 740.70596,204.2812 L 740.89346,233.8438 L 726.76846,225 L 646.04966,254.875 L 666.42466,233.9062 L 591.42466,232.125 L 591.42466,204.2812 L 529.61226,146.0625 L 537.83096,177.125 L 529.98726,176.0625 L 492.11226,68.5625 L 446.04966,20 L 437.11226,29.625 L 479.98726,140.3438 L 507.11226,172.5 L 477.48726,165.7188 L 467.11226,146.7812 L 453.20596,142.8438 L 423.54966,118.2188 L 494.61226,269.2812 L 507.11226,237.8438 L 488.20596,197.5 L 546.42466,204.2812 L 581.76846,305.7188 L 590.70596,278.5625 L 591.04966,252.8438 L 622.48726,250.7188 L 619.26846,253.9062 L 603.54966,255 L 611.42466,311.7813 L 623.20596,296.0625 L 623.54966,271.0625 L 628.92466,272.5 L 642.42466,258.5938 L 672.83096,277.125 L 740.92466,237.4688 L 741.42466,310 L 789.98726,172.8438 L 800.95596,171.4688 L 799.98726,182.5 L 821.42466,176.4062 L 834.61226,95.3438 L 810.70596,58.5625 L 801.51846,164.9062 L 801.76846,144.625 L 722.83096,143.2188 L 725.33096,25 L 684.98726,0 z M 1045.3309,29.625 L 1004.2684,58.9062 L 953.92462,178.5625 L 937.83092,191.0625 L 892.83092,191.0625 L 881.42462,231.7812 L 818.92466,298.2188 L 844.61226,298.2188 L 897.48722,258.2188 L 893.54962,253.2188 L 911.42462,246.0625 L 916.42462,231.7812 L 928.92462,231.7812 L 896.42462,301.7813 L 901.42462,308.5625 L 925.33092,284.625 L 938.92462,259.625 L 965.70592,237.8438 L 962.83092,226.4062 L 1014.2684,211.7812 L 1027.4872,192.8438 L 983.54962,191.7812 L 973.20592,199.2812 L 990.70592,184.625 L 1054.6122,53.5625 L 1053.9246,47.125 L 1067.8309,31.0625 L 1045.3309,29.625 z M 524.26846,110.7188 L 531.04966,142.8438 L 591.04966,201.7812 L 590.33096,177.125 L 524.26846,110.7188 z M 542.11226,111.4062 L 542.11226,122.125 L 591.04966,173.9062 L 591.04966,146.7812 L 571.42466,113.9062 L 542.11226,111.4062 z M 834.61226,111.7812 L 822.83096,178.5625 L 806.42466,187.125 L 801.42466,218.9062 L 816.04966,238.9062 L 834.98726,211.7812 L 850.70596,130 L 834.61226,111.7812 z M 274.26846,129.2812 L 304.98716,172.8438 L 344.61216,181.7812 L 353.20596,192.5 L 392.48726,202.8438 L 406.42466,197.125 L 409.26846,200.3438 L 400.33096,210.3438 L 412.48726,238.5625 L 370.70596,241.0625 L 333.54966,287.8438 L 486.42466,252.125 L 476.76846,234.625 L 441.42466,235 L 428.20596,208.2188 L 456.04966,188.5625 L 446.76846,169.2812 L 274.26846,129.2812 z M 861.42462,140 L 839.61226,219.625 L 779.26846,321.4063 L 797.83096,315.7188 L 872.11222,232.125 L 889.98722,173.5625 L 861.42462,140 z M 1015.3309,150.7188 L 991.04962,186.0625 L 1063.2059,173.5625 L 1052.8309,152.8438 L 1015.3309,150.7188 z M 1127.4872,169.625 L 1001.4246,222.8438 L 999.61222,223.2188 L 1015.7059,243.2188 L 1158.5496,173.5625 L 1127.4872,169.625 z M 617.48726,191.0625 L 632.83096,221.0625 L 681.42466,217.8438 L 669.98726,199.2812 L 617.48726,191.0625 z"
       id="path2188" />
    <path
       style="fill:url(#linearGradient2707);fill-opacity:1;fill-rule:evenodd;stroke:none;stroke-width:1px;stroke-linecap:butt;stroke-linejoin:miter;stroke-opacity:1"
       d="M 260.59656,405.5 C 127.24415,406.14693 13.45594,439.73046 -71.059687,460.0625 C -155.57531,480.39454 -415.52844,568.15625 -415.52844,568.15625 C -415.52844,568.15625 -42.740106,460.52323 -64.997187,470.1875 C -84.190085,478.52126 -442.8097,605.53123 -442.80969,605.53125 C -442.80969,605.53125 -34.79942,475.84888 -62.997187,490.375 C -66.881314,492.37591 -77.644803,496.6226 -93.028437,502.34375 C -193.49308,529.92919 -372.96594,590.34373 -372.96594,590.34375 C -372.96594,590.34375 -303.67683,571.21293 -229.99719,550.96875 C -313.78105,580.10444 -397.34094,608.56249 -397.34094,608.5625 C -397.34094,608.5625 -271.84065,573.03399 -161.49719,541.75 C -265.53721,578.04837 -398.62218,624.56248 -398.62219,624.5625 C -398.62219,624.5625 -364.00868,614.21878 -319.15344,600.84375 C -329.0952,604.46132 -335.1743,606.88546 -335.71594,607.5625 C -337.72931,610.07921 -236.847,580.98285 -138.77844,552.65625 C -232.54855,584.92917 -355.87218,627.34373 -355.87219,627.34375 C -355.87219,627.34375 -283.47177,606.53372 -202.84094,583.65625 C -299.47497,615.18566 -388.24719,643.90624 -388.24719,643.90625 C -388.24719,643.90625 -171.67816,580.63166 -31.55969,540.96875 C -119.138,569.35775 -294.95524,622.81185 -297.93469,626.4375 C -300.93498,630.0885 -64.115179,561.26446 24.25281,537.53125 C 14.02636,542.2268 3.06542,547.29684 -8.77844,552.75 C -123.66947,590.33125 -347.30969,659.68748 -347.30969,659.6875 C -347.30969,659.6875 -201.59376,618.74306 -76.715937,584.09375 C -118.1846,603.2393 -156.72485,621.04585 -192.21594,637.46875 C -236.05901,652.53325 -270.37216,664.34375 -270.37219,664.34375 C -270.37219,664.34375 -243.9024,656.24215 -211.15344,646.25 C -249.55826,664.02547 -278.15344,677.25 -278.15344,677.25 C -278.15344,677.25 -232.87081,658.75704 -174.27844,635 C -104.93617,613.8932 -13.4396,586.17354 53.59656,566.375 C 6.78084,597.64798 -28.40133,621.11861 -72.997187,650.875 C -110.60651,670.02536 -161.15341,695.78125 -161.15344,695.78125 C -161.15344,695.78125 -134.53504,683.81105 -97.278437,667.09375 C -118.05878,680.95781 -157.93469,707.5625 -157.93469,707.5625 C -157.93469,707.5625 -120.57841,684.91843 -71.434687,655.5 C -20.33204,632.59607 41.82503,604.81802 91.94031,582.6875 C 46.19994,618.50323 -9.98271,661.54715 -47.934687,690.5 C -68.509069,703.79248 -83.247187,713.34375 -83.247187,713.34375 C -83.247187,713.34375 -70.024915,706.1525 -64.465937,703.125 C -76.025307,711.91991 -90.247187,722.71875 -90.247187,722.71875 C -90.247187,722.71875 -79.027436,714.36646 -61.497187,701.5 C -27.34336,682.90164 63.80362,633.30777 131.53406,596.875 C 105.76941,620.5894 74.39113,648.63503 43.75281,675.71875 C -13.89113,718.7701 -67.122146,758.65624 -67.122187,758.65625 C -67.122161,758.65625 -40.487665,741.59587 -5.96594,719.46875 C -46.342441,754.78521 -77.122187,781.31249 -77.122187,781.3125 C -77.122187,781.3125 -32.4751,745.16844 20.87781,702.28125 C 64.15333,674.55522 111.05846,644.52096 149.81531,619.8125 C 109.21925,660.50697 53.50004,713.7198 12.59656,752.40625 C 62.20252,705.98976 134.03632,639.4142 177.12781,602.40625 C 200.08562,587.82373 213.53013,579.39235 208.40906,582.9375 C 188.13978,596.96926 42.09772,726.28452 12.00281,752.96875 C 11.98861,752.98205 11.98576,752.9867 11.97156,753 C 8.67168,755.92591 0.34656,763.28125 0.34656,763.28125 C 0.34656,763.28125 3.74125,760.66277 4.03406,760.4375 C -43.490351,804.99236 -43.31878,805.1177 4.19031,760.3125 C 12.64686,753.80669 126.22206,666.48827 185.44031,621.53125 C 170.10738,642.42789 152.82296,664.45972 145.22156,674.0625 C 153.54286,663.63015 173.15663,639.19823 192.50281,616.15625 C 211.78183,601.5524 223.04204,593.15498 218.81531,596.8125 C 202.25553,611.14214 150.44031,680.9688 150.44031,680.96875 C 150.44031,680.96875 189.29628,642.33303 217.40906,614.59375 C 211.43852,624.838 204.59995,636.25833 197.28406,648.25 C 147.28104,712.82675 76.3465,805.81251 76.34656,805.8125 C 76.34656,805.8125 200.92705,663.27753 246.90906,613.28125 C 232.34609,643.41134 207.89197,688.49485 184.00281,730.71875 C 192.58748,717.98282 201.35178,705.11313 210.03406,692.4375 C 179.09494,751.32984 141.6122,824.70322 115.90906,874.0625 C 149.42986,818.52616 203.4088,733.65936 241.47156,674.25 C 217.31089,724.01801 187.34759,785.47842 163.56531,833.5 C 199.92456,767.26888 250.3556,678.04016 277.37781,630.375 C 261.72621,678.15928 225.42602,788.75585 208.94031,837.5625 C 230.66742,780.21954 286.9696,640.47712 294.12781,622.71875 C 293.82507,625.29874 293.46819,628.05708 293.09656,630.9375 C 282.25808,674.87268 251.04985,803.87833 280.56531,716.125 C 301.90528,652.67865 340.76706,638.65424 360.34656,640.125 C 332.70643,652.91797 335.27713,670.41998 306.72156,706.5625 C 314.7509,698.92484 335.19618,685.76815 355.81531,673.46875 C 363.10491,672.23981 370.93024,671.34103 378.34656,670.8125 C 368.96891,682.32886 364.17426,694.71824 299.65906,750 C 307.43504,743.84401 318.19557,737.90529 330.72156,732.3125 C 324.71377,737.34793 318.94666,742.23537 313.90906,746.5 C 346.24319,727.911 407.40034,712.97642 447.37781,704.65625 C 398.20427,725.61605 330.97155,756.03126 330.97156,756.03125 C 330.97156,756.03125 406.2282,725.69709 456.47156,707.9375 C 410.96425,726.23784 329.03405,762.34374 329.03406,762.34375 C 329.03406,762.34375 412.78088,735.31881 459.31531,719.75 C 463.23305,718.10448 466.90311,716.64662 470.40906,715.28125 C 468.84044,716.06499 467.22291,716.8352 465.59656,717.625 C 463.44464,718.35002 461.67104,718.96186 459.31531,719.75 C 444.40064,726.01445 427.11339,733.99494 412.09656,741.21875 C 398.13005,746.95282 386.96782,751.29009 382.94031,752.84375 C 386.22118,751.61257 394.7549,748.41253 405.03406,744.625 C 384.93335,754.44669 370.98431,761.93074 377.47156,759.5625 C 392.67051,754.01391 525.68365,705.01622 519.03406,719.8125 C 518.87153,720.17416 518.61489,720.52976 518.34656,720.90625 C 488.80388,736.73679 427.90799,755.21136 451.19031,752 C 451.69102,751.93094 452.36794,751.82771 452.90906,751.75 C 439.20112,756.93683 431.68822,760.05383 442.09656,758.65625 C 467.98751,755.17971 552.58318,739.44273 554.78406,742.9375 C 518.7489,757.63709 435.03404,787.37499 435.03406,787.375 C 435.03406,787.375 437.68355,786.79428 441.15906,786.03125 C 434.02258,788.51806 426.84655,791 426.84656,791 C 426.84656,791 610.1839,751.24656 608.28406,762.34375 C 606.38419,773.44092 536.12785,791.93748 536.12781,791.9375 C 536.12781,791.9375 549.36733,788.53199 564.90906,784.3125 C 562.11393,785.18847 559.37364,786.01606 556.75281,786.78125 C 559.59197,785.97229 563.60675,784.7725 568.00281,783.4375 C 588.97771,777.71172 612.86498,770.89452 614.97156,768.84375 C 614.97156,768.67049 615.43349,768.27933 616.25281,767.78125 C 619.51179,766.84231 622.59848,766.00568 625.47156,765.3125 C 629.96937,768.06853 633.73587,770.40422 633.87781,772.0625 C 634.10106,774.67053 633.63577,776.13979 633.28406,776.8125 C 633.386,776.70535 633.46285,776.57797 633.62781,776.4375 C 635.52767,774.81916 636.70283,767.46354 638.12781,771.625 C 639.55269,775.78643 635.99047,780.38022 639.31531,776.21875 C 642.64005,772.0573 643.34647,771.11456 643.34656,779.4375 C 643.34656,780.59142 643.28989,781.53357 643.19031,782.3125 C 640.83499,784.95322 637.81532,786.59375 637.81531,786.59375 C 637.81531,786.59375 639.90215,786.02924 642.94031,783.78125 C 642.19321,786.77911 640.9981,785.39441 644.06531,785.21875 C 645.72737,785.12357 646.36547,782.88599 646.62781,780.5625 C 646.96915,780.22925 647.30671,779.93331 647.62781,779.65625 C 648.00576,784.15968 647.84654,789.87499 647.84656,789.875 C 647.84656,789.875 651.41519,787.56834 650.94031,785.71875 C 650.67266,784.67656 650.7034,780.87114 650.78406,777.65625 C 653.09073,776.84181 654.78043,777.90449 656.25281,780.03125 C 658.52565,783.31425 666.09654,794.93752 666.09656,794.9375 C 666.09656,794.9375 666.34579,790.38103 663.31531,783.5625 C 662.67978,782.13255 662.35447,780.83979 662.25281,779.71875 C 667.97314,780.92314 672.09657,785.75003 672.09656,785.75 C 672.09656,785.75 673.89901,780.84028 673.22156,780.1875 C 676.43841,780.7218 679.47155,780.78124 679.47156,780.78125 C 679.47156,780.78125 679.48094,779.04141 675.44031,778.03125 C 673.99711,777.67044 672.18421,774.85521 670.44031,771.40625 C 674.15953,771.12512 677.28406,770.65627 677.28406,770.65625 C 677.28406,770.65625 677.31488,770.68057 670.19031,767.90625 C 669.56875,767.66421 668.97562,767.38057 668.40906,767.09375 C 667.42228,764.83592 666.67121,762.88694 665.97156,761.0625 C 666.35398,761.17048 666.74434,761.25883 667.12781,761.3125 C 668.47893,762.72476 670.40244,764.16898 673.15906,765.375 C 681.24028,768.91053 686.29593,761.8463 682.00281,761.59375 C 680.59893,761.51117 678.24415,760.36943 675.87781,758.96875 C 677.72992,757.85529 678.97152,756.78125 678.97156,756.78125 C 678.97156,756.78125 678.97747,755.3941 674.94031,756.78125 C 674.37234,756.9764 673.7522,757.13526 673.09656,757.21875 C 669.40817,754.75706 666.66876,752.41511 669.12781,753.78125 C 672.82951,755.83775 683.07812,753.54623 685.72156,753.03125 C 684.42365,752.87734 681.79533,751.55091 679.12781,750.0625 C 680.54708,749.65054 681.59656,750.09376 681.59656,750.09375 C 681.59656,750.09375 679.93515,746.18453 671.47156,745.46875 C 671.47005,745.46778 671.40906,745.4375 671.40906,745.4375 C 671.40906,745.4375 689.84069,744.18749 687.31531,744.1875 C 685.81196,744.1875 676.84651,741.95695 671.06531,740.09375 C 672.29811,739.78765 673.72416,739.68262 675.19031,739.9375 C 681.8399,741.09346 684.65895,733.46904 682.28406,734.625 C 681.23283,735.13668 678.04255,734.78647 675.22156,734.09375 C 681.43877,730.19543 688.0653,724.46876 688.06531,724.46875 C 688.06531,724.46875 684.51981,725.47464 679.72156,728 C 678.26751,728.76529 675.95064,729.31652 673.59656,729.6875 C 676.78914,727.2383 678.25276,722.81253 678.25281,722.8125 C 678.25281,722.8125 677.065,722.1386 673.50281,726.53125 C 672.49366,727.77562 670.15433,728.63752 667.44031,729.25 C 673.13708,727.0989 680.25278,715.90627 680.25281,715.90625 C 680.25281,715.90625 678.71741,716.90959 672.90906,719.6875 C 670.04184,721.05878 665.38421,722.71525 661.40906,724.0625 C 664.02386,721.22609 666.15906,718.43751 666.15906,718.4375 C 666.15906,718.4375 663.70164,720.56784 654.00281,726.5 C 653.99552,726.50446 653.97886,726.49554 653.97156,726.5 L 652.28406,725.90625 C 642.80945,716.94776 617.89951,707.36412 574.40906,686.34375 C 513.79991,657.04933 438.05724,501.49193 367.34656,430.78125 C 348.56404,411.99873 308.83041,405.266 260.59656,405.5 z M 685.72156,753.03125 C 685.95308,753.0587 686.14617,753.05171 686.28406,753 C 686.65917,752.85934 686.32427,752.91383 685.72156,753.03125 z M 633.28406,776.8125 C 632.76393,777.35957 632.95248,777.44677 633.28406,776.8125 z M 313.90906,746.5 C 308.11381,749.8317 303.23897,753.23527 299.59656,756.78125 C 284.88559,771.10233 295.07455,762.44458 313.90906,746.5 z M 115.90906,874.0625 C 99.3427,901.50929 87.80163,921.77339 85.84656,927.90625 C 83.25983,936.02052 96.13559,912.0348 115.90906,874.0625 z M 97.09656,537.03125 C 97.33299,536.99937 97.46092,537.00738 97.50281,537.03125 C 97.41969,537.08685 97.33622,537.16296 97.25281,537.21875 C 97.22734,537.23579 97.18456,537.23294 97.15906,537.25 C 96.95351,537.34389 96.68757,537.47442 96.28406,537.625 C 79.74343,543.79757 -21.01901,578.58774 -113.37219,610.375 C -69.616628,592.70863 -24.19111,574.45146 16.06531,558.46875 C 60.83652,546.20652 93.07808,537.57302 97.09656,537.03125 z M 138.56531,542.65625 C 138.82999,542.69341 138.67543,542.88406 138.09656,543.1875 C 129.02375,547.9434 60.1981,583.01174 -8.77844,618.15625 C 32.09656,593.9307 73.96688,569.43575 106.65906,550.9375 C 125.39847,545.61285 137.22876,542.46861 138.56531,542.65625 z M 174.97156,547.1875 C 175.05875,547.23737 174.81371,547.43681 174.19031,547.8125 C 158.73494,557.12658 34.77461,637.09205 -35.09094,682.21875 C 14.85204,645.89328 87.65992,593.89363 136.65906,563.0625 C 159.38201,553.18877 174.41615,546.86983 174.97156,547.1875 z M 232.37781,603.25 C 229.85388,606.42652 227.13738,609.8908 224.03406,613.84375 C 226.93276,610.05697 229.71485,606.54072 232.37781,603.25 z"
       id="path12950"
       sodipodi:nodetypes="cscscscccccccscccccscccccccccccccccccccccccsccccccscsccccccsccccccccccccccsccccccccccccccccccsscscsccccscccccccscsssscccscccscscsccccsccscccssccscscccscscssccsccsccsccsccssccsccccsccsccssssccccsccccscccccc" />
    <path
       style="fill:url(#linearGradient2704);fill-opacity:1;fill-rule:evenodd;stroke:none;stroke-width:1px;stroke-linecap:butt;stroke-linejoin:miter;stroke-opacity:1"
       d="M 78.43957,1096.467 C 78.43957,1096.467 597.65798,846.95936 603.71889,705.53799 C 609.77981,564.11663 387.54624,690.3857 444.11478,625.73594 C 500.68332,561.08618 667.3585,610.58365 622.91179,711.59891 C 578.46508,812.61416 258.24672,799.48217 165.31269,961.10659 C 72.37866,1122.731 74.39896,1088.3858 78.43957,1096.467 z"
       id="path36558"
       sodipodi:nodetypes="cszssc" />
    <path
       style="fill:url(#linearGradient2701);fill-opacity:1;fill-rule:evenodd;stroke:none;stroke-width:1px;stroke-linecap:butt;stroke-linejoin:miter;stroke-opacity:1"
       d="M -150.73379,835.71429 C -150.73379,835.71429 -2.16237,1007.1429 12.12334,934.28572 C 26.40906,861.42858 74.98049,765.71429 102.12334,840 C 129.2662,914.28572 66.40906,842.85715 76.40906,915.71429 C 86.40906,988.57146 346.40906,988.57146 262.12334,891.42858 C 177.83763,794.28572 400.69477,867.14286 440.69477,948.57143 C 480.69477,1030 620.69477,1092.8572 722.12334,1027.1429 C 823.55191,961.42857 502.12334,838.57143 622.12334,861.42858 C 742.12334,884.28572 930.69472,1091.4286 1054.9804,997.14286 C 1179.2661,902.85715 867.83762,745.71429 1090.6947,854.28572 C 1313.5518,962.85715 1554.9804,952.85715 1530.6947,877.14286 C 1506.409,801.42858 1657.8376,885.71429 1657.8376,885.71429 L 1667.8376,1175.7143 L -199.30522,1130 L -150.73379,835.71429 z"
       id="path30654" />
    <path
       style="fill:url(#linearGradient2698);fill-opacity:1;fill-rule:evenodd;stroke:none;stroke-width:1px;stroke-linecap:butt;stroke-linejoin:miter;stroke-opacity:1"
       d="M -237.87665,845.71429 C -237.87665,845.71429 757.83762,890 587.83762,934.28571 C 417.83762,978.5714 552.12334,1004.2857 622.12334,980 C 692.12334,955.71429 616.40905,911.42857 672.12334,897.14286 C 727.83762,882.85714 619.2662,1101.4286 806.40905,980 C 993.55182,858.57143 1344.9804,852.85714 1273.5518,945.71429 C 1202.1232,1038.5714 1329.2661,1062.8571 1407.8375,991.4286 C 1486.4089,920 1620.6947,887.14286 1642.1232,957.14286 C 1663.5518,1027.1429 1652.1232,1238.5714 1652.1232,1238.5714 L -220.73379,1180 L -237.87665,845.71429 z"
       id="path31633" />
    <path
       style="fill:url(#linearGradient2695);fill-opacity:1;fill-rule:evenodd;stroke:none;stroke-width:1px;stroke-linecap:butt;stroke-linejoin:miter;stroke-opacity:1"
       d="M 109.2662,421.42857 L -443.59094,527.14286 C -443.59094,527.14286 -525.01951,622.85714 -206.44808,827.14286 C 112.12335,1031.4286 562.12335,805.71429 594.98049,790 C 627.83763,774.28571 617.83763,727.14286 617.83763,727.14286 C 617.83763,727.14286 90.69477,531.42857 109.2662,421.42857 z"
       id="path2266" />
    <path
       id="path3267"
       d="M 1280.5583,443.67857 C 1426.2012,450.89286 1792.8083,504.28572 1792.8083,504.28572 C 1792.8083,504.28572 1904.2369,654.28571 1585.6655,858.57143 C 1267.094,1062.8571 817.09402,837.14286 784.23692,821.42857 C 751.37982,805.71428 761.37982,758.57143 761.37982,758.57143 C 761.37982,758.57143 1160.9154,530.46428 1280.5583,443.67857 z"
       style="fill:url(#linearGradient2692);fill-opacity:1;fill-rule:evenodd;stroke:none;stroke-width:1px;stroke-linecap:butt;stroke-linejoin:miter;stroke-opacity:1"
       sodipodi:nodetypes="cccscc" />
  </g>
</svg>
